<svg id="Layer_1" data-name="Layer 1" xmlns="http://www.w3.org/2000/svg" viewBox="0 0 138.42 167.34"><defs><style>.cls-1{fill:#d19c2a;}.cls-2{fill:#fec010;}.cls-3{fill:#56c9ee;}.cls-4{fill:#f89c4e;}.cls-5{fill:#b4b6b6;}.cls-6{fill:#fff;}.cls-7{fill:#9a1c1f;}.cls-8{fill:#9d1c20;}.cls-9{fill:#de4b3e;}</style></defs><path d="M194.13,136.8a16.06,16.06,0,0,1-2.87,5.63c-6.72,7.5-15.24,10.55-25.14,8.91-8.14-1.36-14.88-5.19-18.81-13l-.47.3s-4.05-5.76,6.55-6.81c11.7,0,23.08,0,34.46,0a16.91,16.91,0,0,1,3.41.31C193.56,132.69,194.87,134.6,194.13,136.8Z" transform="translate(-103.31 -38.31)"/><path class="cls-1" d="M232.48,126.38a10.6,10.6,0,0,0-11.62,8.73c-.1.65-.19,1.65-.58,1.84-2.91,1.36-5.89,2.56-9.25,4a78.84,78.84,0,0,0,1.15-30.33,54.58,54.58,0,0,0-12.55-27.08c.66-.58,1.19-1,1.68-1.47,3.31-3.12,6.32-6.46,7.48-11,1.06-4.24-2-7.36-6.22-6.32a55.86,55.86,0,0,0-5.81,2.11,6.7,6.7,0,0,1-.48-1c-1.94-5.93-5.53-10.84-9.66-15.39A6.27,6.27,0,0,0,180,48.29a44.13,44.13,0,0,0-6.44,2.82,24.13,24.13,0,0,0-2.69,1.78A19.23,19.23,0,0,1,170,50c-.3-2.8-.37-5.63-.77-8.42s-1.38-3.61-3.17-3.18c-3.11.74-5.2,3.26-4.55,5.48.51,1.72,1,3.42,1.49,5-2.12-.25-4.06-.43-6-.74-.86-.14-2-.3-2.47-.88-6.94-8.71-20.57-9.59-29.6,1.1,7,3.66,12.76,9.88,21.58,9.87-.92,2.34-1.88,4.06-4.42,4.68-2.36.58-4.36,2-7.11,1.71s-4.46,2-4.56,4.9a5.44,5.44,0,0,1-.65,2.74,27.14,27.14,0,0,0-4.63,12.54,35.52,35.52,0,0,0,.92,13.38l4.43-2a3.24,3.24,0,0,1,.09.78,59.52,59.52,0,0,0-1.1,20.48,2.45,2.45,0,0,1-1.1,1.88c-2,1.16-4.09,2-6.08,3.18a4.25,4.25,0,0,1-4.4.25c-3.69-1.7-7.34-1-10.55,1.43a9.78,9.78,0,0,0-3.91,9.73c.89,4.72,3.1,7.62,8.89,9a2.94,2.94,0,0,1,1.87,1.19c3.37,7.59,8.41,14,14.15,19.84a5.08,5.08,0,0,1,1.5,5.58c-1.9,7.51-3,15.14-1.63,22.9,1.55,9,8.1,14.2,16.77,13.19a30,30,0,0,0,6.91-1.48c17.93-6.64,32.57-17.81,44.34-32.77a18.12,18.12,0,0,1,6.23-5.12c9.36-4.75,18.27-10.18,25.24-18.28a2.79,2.79,0,0,1,2.16-.54,10.56,10.56,0,1,0,2.57-21ZM141.64,44.59c-4.28-1.3-8.25,1-12.15,2.69,4.25-3.86,9.07-5.77,14.83-4.32a14.5,14.5,0,0,1,9.45,7.11C149.39,48,145.67,45.81,141.64,44.59Zm4.28,20.25c2.26-4.59,5.53-8.7,8.52-12.91A4.46,4.46,0,0,1,160,50.56a34.87,34.87,0,0,1,5.78,3.16,6.5,6.5,0,0,0,7.68.1,47.07,47.07,0,0,1,5.55-3.1,5,5,0,0,1,6,1.47,44,44,0,0,1,9.19,14.65c.79,2.15.17,3.15-1.76,4.06-5.71,2.69-11.83,3.46-18,3.91-1.6.12-3.21,0-4.81,0-7.14.08-14.24-.43-20.91-3.18C143.21,69.35,143.6,69.58,145.92,64.84Zm-2.3,8.81c.12-1,.34-1.91.54-3,9.75,5.15,20,5.57,30.34,5.24,4.41-.14,8.82-.49,13.24-.73a4.12,4.12,0,0,1,1.36,0c.6.21,1.44.47,1.62.94a1.89,1.89,0,0,1-.71,1.65,14.52,14.52,0,0,1-4.25,2.1c-13,2.79-26,3.15-38.81-1.17C143.47,77.5,143.17,77.2,143.62,73.65ZM136.71,67c.22,0,.43.14.65.21,5.17,1.69,5.17,1.69,4.71,7-.35,4.1-.23,4.36,3.38,6.22,6,3.06,12.44,4,19,4.41,9.12.55,18.27.31,26.8-3.27,8.08-3.4,6.45-2.43,5.7-9.81-.19-1.89.31-2.66,1.84-3.22a33.88,33.88,0,0,1,4.5-1.65c2.54-.53,4.11.89,3.36,3.32a17.6,17.6,0,0,1-3.43,6.32C196.6,84.1,188,87.77,178.1,88.67c-2.81.25-5.63.29-8.46.42-9.22.07-18.24-1-26.06-6.33a63.5,63.5,0,0,1-8.73-7.94,9.7,9.7,0,0,1-2-3.83C131.87,67.89,133.51,66.25,136.71,67Zm-8.9,25.42a26,26,0,0,1,3.74-18.08c1.54,1.35,1.29,2.45.67,4.12C130.45,83.18,129.14,88.08,127.81,92.42Zm-12.44,33.39L108,129.55C110.06,126.08,111.89,125.19,115.37,125.81Zm-5.7,10.2-2.07-2.5c.46,1.19,1,2.35,1.35,3.56.12.39-.14.9-.23,1.35-.5-.14-1.21-.12-1.45-.45a19.74,19.74,0,0,1-1.94-3.29,5.11,5.11,0,0,1-.12-1.81l2-.05c.49-.6.87-1.42,1.51-1.75,6.21-3.26,12.48-6.4,18.69-9.66,1.51-.79,2.35-.63,2.84,1.06a22.2,22.2,0,0,0,1,2.44ZM132,158.09a55.9,55.9,0,0,1-12.62-15.55,2,2,0,0,1,.35-1.69,18,18,0,0,1,2.1-2.06c3.4,2.76,6.82,5.52,10.21,8.29a1.25,1.25,0,0,1,.52.72C132.9,151.16,133.15,154.53,132,158.09Zm.9-15.46c-2.74-2.25-5.52-4.45-8.21-6.77-1-.86-.42-3.37.85-4.07,1.66-.91,3.37-1.73,5.33-2.72.84,4.51,1.66,8.86,2.47,13.21Zm.75-16.71-.76-.06c-.87-1.49-1.8-2.94-2.53-4.49-.18-.39.28-1.09.45-1.64.54.19,1.35.21,1.58.59a16.4,16.4,0,0,1,1.71,3.68C134.29,124.55,133.84,125.28,133.67,125.92Zm1-2.91c-.56-1-1-1.82-1.62-2.84l3-1.77a18.92,18.92,0,0,1,0-11.39c2.73-8,11.06-13.09,18.82-11.57,9.16,1.79,15.24,9.2,14.71,17.9a17.16,17.16,0,0,1-29,10.85C138,121.81,138,121.79,134.64,123Zm39,64.36a84.78,84.78,0,0,1-21.26,12,33.44,33.44,0,0,1-3.25,1.08c-5.34,1.44-9.55-1.72-9.85-7.3-.27-5,1.08-9.68,2.64-14.32s3.54-9.47,4.66-14.35,1.33-9.66,1.9-14.5a34.9,34.9,0,0,0,0-3.58l2.77,1.31c-1.51-3.1-3-6.07-4.4-9,0,0-4.05-5.76,6.55-6.81,2.64-.81,5.1-1.23,7.21-2.32a21.47,21.47,0,0,0,6-4.51,18.72,18.72,0,0,0,3.65-6.25,20,20,0,0,0,1.13-7.38,18.2,18.2,0,0,0-7.15-13.8c-4.35-3.44-9.41-4.47-15-3.84a6.92,6.92,0,0,1,7.12-3.38C167.3,92,178.23,92,189,88.86a31.42,31.42,0,0,0,5.44-2.34,1.72,1.72,0,0,1,2.5.55,47.61,47.61,0,0,1,11,24.75C212.06,144,198.68,168.41,173.62,187.37ZM206,156.31c1.17-3.25,2.25-6.33,3.42-9.38a2.76,2.76,0,0,1,1.24-1.46c3.61-1.58,7.27-3.06,11.1-4.66l2.08,3.21C221.2,148,210,155.71,206,156.31Zm25.53-15.26c-3.36,0-6.77-2.83-6.75-5.62S228,130,231.31,130s6.5,2.79,6.52,6C237.85,138.62,234.82,141,231.5,141.05Z" transform="translate(-103.31 -38.31)"/><path class="cls-2" d="M148.48,146.41l2.75,1.31c-1.5-3.1-2.95-6.07-4.39-9l.47-.3c3.93,7.76,10.67,11.6,18.81,13,9.89,1.65,18.43-1.41,25.14-8.89a16.19,16.19,0,0,0,2.87-5.64c.74-2.2-.58-4.11-2.87-4.61a16.21,16.21,0,0,0-3.41-.3c-11.38,0-22.76,0-34.46,0,2.64-.81,5.1-1.23,7.21-2.32a21.27,21.27,0,0,0,6-4.51,18.72,18.72,0,0,0,3.65-6.25,20,20,0,0,0,1.13-7.39,18.18,18.18,0,0,0-7.16-13.79c-4.34-3.44-9.4-4.47-15-3.84a6.92,6.92,0,0,1,7.12-3.38C167.3,92,178.23,92,189,88.86a31.19,31.19,0,0,0,5.45-2.34,1.72,1.72,0,0,1,2.5.55,47.71,47.71,0,0,1,11,24.75c4.08,32.2-9.3,56.59-34.37,75.55a84.54,84.54,0,0,1-21.25,12,33.5,33.5,0,0,1-3.25,1.09c-5.34,1.43-9.55-1.73-9.85-7.32-.27-5,1.08-9.67,2.64-14.31s3.54-9.47,4.66-14.36c1.09-4.72,1.34-9.65,1.9-14.49A34.53,34.53,0,0,0,148.48,146.41Zm25-20.5.07.08c-1.5-.25-3.08-.91-4.47-.63-1.06.22-2.54,1.61-2.59,2.54s1.39,2.21,2.46,2.65a6,6,0,0,0,3.72-.06C175.17,129.72,175.45,127.75,173.5,125.91Zm17.79-4.79A54.64,54.64,0,0,0,193.2,114,16.56,16.56,0,0,0,189.79,101c-1.94-2.44-3.92-2.58-6.31-.71-3.36,2.62-4.78,6.24-5.18,10.32a17.86,17.86,0,0,0,2.19,11.46,60.94,60.94,0,0,1,7.5.44,66.23,66.23,0,0,1,7.54,2.23l.24-.26Z" transform="translate(-103.31 -38.31)"/><path class="cls-3" d="M169.67,74.83c-7.14.09-14.24-.43-20.91-3.18-5.55-2.3-5.16-2.07-2.83-6.81s5.52-8.7,8.51-12.91A4.47,4.47,0,0,1,160,50.56a34.87,34.87,0,0,1,5.78,3.16,6.51,6.51,0,0,0,7.68.11A46.52,46.52,0,0,1,179,50.72a5,5,0,0,1,6,1.47,44.27,44.27,0,0,1,9.19,14.64c.79,2.16.17,3.16-1.76,4.07-5.72,2.69-11.83,3.46-18,3.91C172.88,74.93,171.27,74.83,169.67,74.83Z" transform="translate(-103.31 -38.31)"/><path class="cls-3" d="M169.64,89.09c-9.22.07-18.24-1-26.06-6.33-3.22-2.2-6-5.15-8.73-7.94a9.84,9.84,0,0,1-2-3.83c-1-3.1.63-4.74,3.83-4,.22,0,.43.14.65.21,5.16,1.69,5.16,1.69,4.71,7-.35,4.1-.23,4.36,3.38,6.22,6,3.06,12.44,4,19,4.41,9.13.55,18.27.31,26.8-3.27,8.08-3.4,6.45-2.42,5.7-9.81-.19-1.89.31-2.66,1.84-3.22a33.88,33.88,0,0,1,4.5-1.65c2.54-.53,4.11.89,3.36,3.32a17.76,17.76,0,0,1-3.43,6.32C196.6,84.1,188,87.77,178.1,88.67,175.29,88.93,172.46,89,169.64,89.09Z" transform="translate(-103.31 -38.31)"/><path class="cls-4" d="M144.16,70.62c9.75,5.15,20,5.57,30.34,5.24,4.41-.14,8.82-.48,13.24-.73a3.86,3.86,0,0,1,1.36,0c.6.2,1.44.47,1.62.92a1.9,1.9,0,0,1-.71,1.66,14.28,14.28,0,0,1-4.25,2.1c-13,2.78-26,3.15-38.81-1.17-3.48-1.17-3.78-1.47-3.33-5C143.74,72.69,144,71.74,144.16,70.62Z" transform="translate(-103.31 -38.31)"/><path class="cls-5" d="M134.63,123,133,120.17l3-1.77a18.92,18.92,0,0,1,0-11.39c2.73-8,11-13.09,18.82-11.57,9.16,1.79,15.24,9.19,14.71,17.9a17.16,17.16,0,0,1-29,10.85C138,121.81,138,121.79,134.63,123Zm17.93-26.46c-8.79,0-15.4,6.85-15.4,15.92a15.33,15.33,0,1,0,15.4-15.92Z" transform="translate(-103.31 -38.31)"/><path class="cls-5" d="M107.24,132.82c.49-.6.87-1.42,1.51-1.75,6.21-3.26,12.48-6.39,18.69-9.66,1.52-.79,2.35-.63,2.84,1.06a22.2,22.2,0,0,0,1,2.44L109.67,136l-2.07-2.5Z" transform="translate(-103.31 -38.31)"/><path class="cls-3" d="M107.24,132.82l.36.69c.46,1.19,1,2.35,1.35,3.56.12.39-.14.9-.23,1.35-.5-.14-1.21-.12-1.45-.45a19.08,19.08,0,0,1-1.94-3.29,5.35,5.35,0,0,1-.12-1.81Z" transform="translate(-103.31 -38.31)"/><path class="cls-3" d="M132.9,125.86c-.85-1.49-1.79-2.94-2.52-4.49-.18-.39.28-1.09.45-1.64.54.19,1.35.21,1.58.59a16.4,16.4,0,0,1,1.71,3.68c.17.55-.28,1.28-.45,1.92Z" transform="translate(-103.31 -38.31)"/><path d="M191.29,121.12l4.48,3.4-.24.26a66.23,66.23,0,0,0-7.54-2.23,60.94,60.94,0,0,0-7.5-.44,17.86,17.86,0,0,1-2.19-11.46c.4-4.08,1.82-7.7,5.18-10.32,2.39-1.87,4.37-1.73,6.31.71A16.56,16.56,0,0,1,193.2,114,54.64,54.64,0,0,1,191.29,121.12Zm-3.73-15.42L184.47,103c-.68,1-1.91,1.91-1.9,2.86s1.22,1.94,1.91,2.91Z" transform="translate(-103.31 -38.31)"/><path d="M173.5,125.91c1.95,1.84,1.67,3.81-.81,4.58a6,6,0,0,1-3.72.06c-1.07-.44-2.51-1.77-2.46-2.65s1.53-2.32,2.59-2.54c1.39-.28,3,.38,4.47.63a5.09,5.09,0,0,0-1.58-.14,6,6,0,0,0-1.92.9c-.09.07.14,1,.38,1.11.67.23,1.68.54,2.09.22S173.2,126.66,173.5,125.91Z" transform="translate(-103.31 -38.31)"/><path class="cls-6" d="M173.5,125.91c-.3.75-.41,1.74-1,2.17s-1.42,0-2.09-.22c-.24-.08-.47-1-.38-1.11a6,6,0,0,1,1.92-.9,5.09,5.09,0,0,1,1.58.14Z" transform="translate(-103.31 -38.31)"/><path d="M152.65,96.87a15.63,15.63,0,1,1-15.4,15.92C137.25,103.72,143.86,96.89,152.65,96.87Zm8.67,25.61c-5.57-.1-10.51-.09-15.06,2.91a12,12,0,0,0,9.66,1.38,14.29,14.29,0,0,0,10.87-11.69,14.71,14.71,0,0,0-7-14.82,14.4,14.4,0,0,0-16.27,1.58c-6.8,5.54-6.85,16.49,0,21.83a2.83,2.83,0,0,0,2.33.63,39.69,39.69,0,0,0,4.42-3.15,15.11,15.11,0,0,1-2.16-8.58c.06-2.48,1.34-3,3.43-3.6l-3.12,2.9.58.76,11.9-5.49c1.08,4.86,1,9.45-1.43,13.82Z" transform="translate(-103.31 -38.31)"/><path class="cls-1" d="M161.23,122.16l-1.87-1.52c2.42-4.37,2.51-9,1.43-13.82l-11.91,5.49-.57-.76,3.12-2.9c-2.09.56-3.38,1.12-3.43,3.6a15,15,0,0,0,2.16,8.58,39.8,39.8,0,0,1-4.43,3.15c-.52.28-1.72-.15-2.32-.62-6.81-5.35-6.76-16.3,0-21.84A14.38,14.38,0,0,1,159.72,100a14.69,14.69,0,0,1,7,14.81,14.29,14.29,0,0,1-10.88,11.69,12,12,0,0,1-9.65-1.38C150.72,122.07,155.65,122.06,161.23,122.16ZM156.64,99.9c-3.12-1.16-5.4.1-6,3.18Z" transform="translate(-103.31 -38.31)"/><path d="M156.64,99.9l-6,3.18C151.24,100,153.52,98.74,156.64,99.9Z" transform="translate(-103.31 -38.31)"/><path class="cls-7" d="M171.47,142.52s-3.65-8.51-15.76-.24c7.55-7.32,14.5-7,14.5-7Z" transform="translate(-103.31 -38.31)"/><path class="cls-8" d="M187.24,141.8s-11.75-8-15.77.72c-.18-1.44,1.26-7.2,1.26-7.2C184.84,136.17,187.24,141.8,187.24,141.8Z" transform="translate(-103.31 -38.31)"/><path class="cls-9" d="M187.24,141.8c-17.63,10.91-31.53.48-31.53.48,12.11-8.27,15.76.24,15.76.24C175.49,133.77,187.24,141.8,187.24,141.8Z" transform="translate(-103.31 -38.31)"/><path class="cls-6" d="M153.27,103.43c-2.76-.31-2.92,4.66-1,5.7C155.45,110.79,157.21,103.87,153.27,103.43Z" transform="translate(-103.31 -38.31)"/><path class="cls-6" d="M185.07,102.91c-2.76-.31-2.92,4.66-1,5.7C187.24,110.26,189,103.34,185.07,102.91Z" transform="translate(-103.31 -38.31)"/></svg>