<svg id="Layer_1" data-name="Layer 1" xmlns="http://www.w3.org/2000/svg" viewBox="0 0 336.35 183.63"><defs><style>.cls-1{fill:#d19c2a;}.cls-2{fill:#fec010;}.cls-3{fill:#56c9ee;}.cls-4{fill:#f89c4e;}.cls-5{fill:#b4b6b6;}.cls-6{fill:#fff;}.cls-7{fill:#9a1c1f;}.cls-8{fill:#9d1c20;}.cls-9{fill:#de4b3e;}</style></defs><path d="M95.16,117.81a16,16,0,0,1-2.86,5.63c-6.72,7.5-15.25,10.55-25.14,8.91-8.15-1.36-14.88-5.19-18.81-13l-.48.3s-4-5.76,6.55-6.81c11.7,0,23.09,0,34.47,0a17,17,0,0,1,3.41.31C94.59,113.7,95.9,115.61,95.16,117.81Z" transform="translate(-4.35 -8.49)"/><path class="cls-1" d="M133.51,107.39a10.6,10.6,0,0,0-11.61,8.73c-.1.65-.19,1.65-.59,1.84-2.9,1.36-5.88,2.56-9.25,4a78.45,78.45,0,0,0,1.15-30.33,54.48,54.48,0,0,0-12.54-27.08c.65-.57,1.18-1,1.68-1.47,3.3-3.12,6.32-6.46,7.47-11,1.07-4.24-2-7.36-6.22-6.31a56.6,56.6,0,0,0-5.81,2.1,7.83,7.83,0,0,1-.48-1C95.38,40.9,91.78,36,87.65,31.44a6.26,6.26,0,0,0-6.6-2.14,43.67,43.67,0,0,0-6.44,2.82,23.26,23.26,0,0,0-2.7,1.78A17.94,17.94,0,0,1,71.06,31c-.3-2.8-.38-5.63-.77-8.42S68.9,19,67.11,19.43c-3.11.74-5.2,3.26-4.55,5.48.51,1.72,1,3.42,1.49,5-2.11-.25-4-.42-6-.74a4.29,4.29,0,0,1-2.48-.88C48.66,19.55,35,18.67,26,29.36c7,3.66,12.76,9.88,21.57,9.87-.92,2.34-1.87,4.06-4.42,4.68-2.35.58-4.35,2-7.1,1.71s-4.47,2-4.56,4.9a5.35,5.35,0,0,1-.66,2.74A27.18,27.18,0,0,0,26.21,65.8a35.72,35.72,0,0,0,.92,13.38l4.44-2a2.77,2.77,0,0,1,.08.78A59.76,59.76,0,0,0,30.56,98.4a2.49,2.49,0,0,1-1.11,1.88c-2,1.16-4.09,2-6.07,3.18a4.27,4.27,0,0,1-4.41.25c-3.69-1.7-7.33-1-10.54,1.43a9.77,9.77,0,0,0-3.91,9.73c.89,4.72,3.1,7.62,8.88,9A2.89,2.89,0,0,1,15.27,125c3.37,7.59,8.41,14,14.16,19.84a5.09,5.09,0,0,1,1.5,5.58c-1.9,7.51-3,15.14-1.64,22.9,1.56,9,8.11,14.21,16.77,13.19A29.94,29.94,0,0,0,53,185.06c17.92-6.64,32.57-17.81,44.34-32.77a18,18,0,0,1,6.23-5.12c9.36-4.75,18.27-10.17,25.23-18.28a2.79,2.79,0,0,1,2.16-.54,10.56,10.56,0,1,0,2.57-21ZM42.68,25.6c-4.28-1.3-8.26,1-12.16,2.69,4.25-3.86,9.07-5.77,14.83-4.32a14.48,14.48,0,0,1,9.45,7.11C50.43,29.05,46.7,26.83,42.68,25.6ZM47,45.85c2.25-4.59,5.53-8.7,8.52-12.91a4.45,4.45,0,0,1,5.58-1.37,34.29,34.29,0,0,1,5.79,3.17,6.51,6.51,0,0,0,7.67.1,46.64,46.64,0,0,1,5.56-3.11c2.29-1,4.37-.32,6,1.47a44.37,44.37,0,0,1,9.19,14.65c.79,2.15.16,3.15-1.77,4.06-5.71,2.69-11.82,3.46-18,3.92-1.59.11-3.2,0-4.81,0-7.14.08-14.23-.43-20.9-3.18C44.25,50.36,44.64,50.59,47,45.85Zm-2.31,8.81c.12-1,.34-1.91.55-3,9.74,5.15,20,5.58,30.34,5.24,4.41-.14,8.82-.49,13.23-.73a3.92,3.92,0,0,1,1.37,0c.6.2,1.44.47,1.62.93A1.9,1.9,0,0,1,91,58.75a14.23,14.23,0,0,1-4.24,2.1c-13,2.79-26,3.15-38.82-1.17C44.51,58.51,44.21,58.21,44.65,54.66ZM37.74,48c.22.05.44.14.66.21,5.16,1.69,5.16,1.69,4.71,7-.35,4.1-.23,4.36,3.38,6.22,6,3.07,12.44,4,19,4.41,9.12.55,18.26.31,26.8-3.27,8.08-3.4,6.44-2.42,5.7-9.81-.19-1.89.3-2.66,1.84-3.22a34.26,34.26,0,0,1,4.5-1.65c2.53-.53,4.11.89,3.35,3.32a17.73,17.73,0,0,1-3.42,6.32C97.63,65.11,89,68.78,79.14,69.68c-2.81.26-5.64.29-8.46.42-9.23.07-18.24-1-26.06-6.33a62.31,62.31,0,0,1-8.73-7.94,9.7,9.7,0,0,1-2-3.83C32.91,48.9,34.54,47.26,37.74,48Zm-8.9,25.42a26,26,0,0,1,3.74-18.08c1.55,1.35,1.29,2.45.67,4.12C31.48,64.2,30.18,69.09,28.84,73.43ZM16.4,106.82,9,110.56C11.1,107.09,12.92,106.2,16.4,106.82ZM10.71,117l-2.07-2.49c.46,1.18,1,2.34,1.34,3.56.12.38-.14.89-.23,1.34-.5-.14-1.21-.12-1.45-.45a19,19,0,0,1-1.93-3.29,5.1,5.1,0,0,1-.13-1.81l2,0c.5-.6.87-1.42,1.51-1.75,6.21-3.26,12.48-6.4,18.69-9.66,1.52-.79,2.36-.62,2.85,1.06a19.61,19.61,0,0,0,1,2.45ZM33.06,139.1a55.62,55.62,0,0,1-12.63-15.55,2,2,0,0,1,.36-1.69,17,17,0,0,1,2.09-2q5.11,4.13,10.22,8.28a1.34,1.34,0,0,1,.52.72C33.93,132.17,34.18,135.54,33.06,139.1Zm.9-15.46c-2.75-2.25-5.53-4.45-8.22-6.77-1-.85-.41-3.37.86-4.07,1.65-.91,3.36-1.73,5.32-2.72.84,4.51,1.66,8.86,2.48,13.21Zm.75-16.71-.77-.06c-.86-1.49-1.79-2.94-2.52-4.49-.19-.39.28-1.09.45-1.64.54.19,1.34.21,1.58.59a15.82,15.82,0,0,1,1.7,3.69C35.33,105.56,34.88,106.29,34.71,106.93Zm1-2.91-1.62-2.84,3-1.77a18.84,18.84,0,0,1,0-11.39c2.73-8,11-13.09,18.81-11.57,9.16,1.79,15.24,9.2,14.72,17.9a17.17,17.17,0,0,1-29,10.85C39,102.82,39.05,102.8,35.67,104Zm39,64.36a84.72,84.72,0,0,1-21.25,12,31.72,31.72,0,0,1-3.25,1.08c-5.35,1.44-9.56-1.72-9.86-7.3-.27-5,1.09-9.68,2.65-14.32s3.54-9.47,4.66-14.35,1.33-9.66,1.89-14.5a34.53,34.53,0,0,0,0-3.58l2.76,1.31-4.4-9s-4-5.76,6.55-6.81c2.64-.81,5.11-1.22,7.21-2.32a21.27,21.27,0,0,0,6-4.51,18.72,18.72,0,0,0,3.65-6.25,20,20,0,0,0,1.14-7.38,18.24,18.24,0,0,0-7.16-13.8c-4.34-3.44-9.4-4.47-15-3.84a6.91,6.91,0,0,1,7.12-3.38C68.34,73,79.27,73,90,69.87a31.52,31.52,0,0,0,5.45-2.34,1.71,1.71,0,0,1,2.49.56A47.64,47.64,0,0,1,109,92.83C113.1,125,99.71,149.42,74.65,168.38ZM107,137.32c1.18-3.25,2.26-6.33,3.42-9.37a2.82,2.82,0,0,1,1.24-1.47c3.61-1.58,7.28-3.06,11.11-4.66l2.07,3.21C122.24,129,111.07,136.72,107,137.32Zm25.53-15.26c-3.35,0-6.76-2.82-6.74-5.62S129,111,132.35,111s6.5,2.79,6.52,6C138.88,119.63,135.85,122,132.53,122.06Z" transform="translate(-4.35 -8.49)"/><path class="cls-2" d="M49.51,127.42l2.76,1.31-4.39-9,.47-.3c3.93,7.76,10.67,11.6,18.81,13,9.89,1.65,18.42-1.4,25.14-8.89a16.17,16.17,0,0,0,2.86-5.64c.74-2.2-.57-4.11-2.87-4.61a16.11,16.11,0,0,0-3.4-.3c-11.39,0-22.77,0-34.47,0,2.65-.81,5.11-1.23,7.21-2.32a21.46,21.46,0,0,0,6-4.51,18.7,18.7,0,0,0,3.64-6.25,20.06,20.06,0,0,0,1.14-7.39,18.21,18.21,0,0,0-7.16-13.79c-4.35-3.44-9.41-4.47-15-3.84a6.9,6.9,0,0,1,7.12-3.38C68.34,73,79.27,73,90,69.87a30.76,30.76,0,0,0,5.45-2.34,1.72,1.72,0,0,1,2.49.55A47.63,47.63,0,0,1,109,92.83c4.09,32.2-9.3,56.59-34.36,75.55a84.89,84.89,0,0,1-21.25,12c-1.07.41-2.15.79-3.25,1.09-5.35,1.43-9.56-1.73-9.86-7.32-.27-5,1.08-9.66,2.65-14.31s3.54-9.47,4.66-14.35c1.08-4.73,1.33-9.65,1.89-14.5A34.53,34.53,0,0,0,49.51,127.42Zm25-20.5.08.08c-1.5-.25-3.09-.91-4.47-.63-1.06.22-2.55,1.61-2.59,2.54s1.39,2.21,2.46,2.65a6,6,0,0,0,3.71-.06C76.2,110.73,76.48,108.76,74.53,106.92Zm17.79-4.79A54.22,54.22,0,0,0,94.23,95a16.57,16.57,0,0,0-3.4-12.91c-1.94-2.44-3.92-2.58-6.32-.71-3.36,2.62-4.77,6.24-5.18,10.32a17.92,17.92,0,0,0,2.19,11.46,60.83,60.83,0,0,1,7.5.44,67.69,67.69,0,0,1,7.54,2.23l.25-.26Z" transform="translate(-4.35 -8.49)"/><path class="cls-3" d="M70.7,55.84c-7.14.09-14.23-.43-20.9-3.18-5.55-2.3-5.16-2.07-2.84-6.81s5.53-8.7,8.52-12.91a4.47,4.47,0,0,1,5.59-1.37,35.27,35.27,0,0,1,5.78,3.16,6.48,6.48,0,0,0,7.67.11,46.64,46.64,0,0,1,5.56-3.11c2.29-1,4.37-.32,6,1.47a44.18,44.18,0,0,1,9.18,14.65c.8,2.15.18,3.15-1.75,4.06-5.72,2.69-11.83,3.46-18,3.91C73.92,55.94,72.31,55.84,70.7,55.84Z" transform="translate(-4.35 -8.49)"/><path class="cls-3" d="M70.68,70.1c-9.23.07-18.24-1-26.06-6.33a61.75,61.75,0,0,1-8.73-7.94,9.73,9.73,0,0,1-2-3.82c-1-3.11.62-4.75,3.82-4,.22.05.44.14.66.21,5.16,1.69,5.16,1.69,4.71,7-.35,4.1-.23,4.36,3.38,6.22,6,3.06,12.44,4,19,4.41,9.12.55,18.26.31,26.8-3.27,8.08-3.4,6.44-2.42,5.7-9.81-.19-1.89.3-2.66,1.84-3.22a34.26,34.26,0,0,1,4.5-1.65c2.53-.52,4.1.89,3.35,3.32a17.65,17.65,0,0,1-3.42,6.32C97.63,65.11,89,68.78,79.14,69.68,76.33,69.94,73.5,70,70.68,70.1Z" transform="translate(-4.35 -8.49)"/><path class="cls-4" d="M45.2,51.63c9.74,5.15,20,5.57,30.33,5.24,4.42-.14,8.83-.48,13.24-.73a3.91,3.91,0,0,1,1.37,0c.6.2,1.44.47,1.61.92A1.85,1.85,0,0,1,91,58.75a14.16,14.16,0,0,1-4.25,2.1c-13,2.78-26,3.15-38.81-1.17-3.47-1.17-3.77-1.47-3.33-5C44.77,53.7,45,52.75,45.2,51.63Z" transform="translate(-4.35 -8.49)"/><path class="cls-5" d="M35.67,104l-1.62-2.84,3-1.77a18.84,18.84,0,0,1,0-11.39c2.73-8,11-13.09,18.81-11.57,9.16,1.79,15.24,9.19,14.71,17.9a17.15,17.15,0,0,1-29,10.85C39,102.82,39.05,102.8,35.67,104ZM53.59,77.56c-8.79,0-15.4,6.85-15.4,15.93a15.33,15.33,0,1,0,15.4-15.93Z" transform="translate(-4.35 -8.49)"/><path class="cls-5" d="M8.27,113.83c.5-.59.88-1.42,1.51-1.75,6.21-3.26,12.48-6.39,18.69-9.66,1.52-.79,2.35-.63,2.84,1.07a23.18,23.18,0,0,0,1.05,2.43L10.71,117l-2.07-2.5Z" transform="translate(-4.35 -8.49)"/><path class="cls-3" d="M8.27,113.83l.37.69c.46,1.19,1,2.35,1.34,3.57.12.38-.14.89-.23,1.34-.49-.14-1.2-.12-1.45-.45a19,19,0,0,1-1.93-3.29,5.1,5.1,0,0,1-.13-1.81Z" transform="translate(-4.35 -8.49)"/><path class="cls-3" d="M33.94,106.87c-.86-1.49-1.79-2.94-2.52-4.49-.19-.39.28-1.09.44-1.64.55.19,1.36.21,1.59.59A16.4,16.4,0,0,1,35.16,105c.16.55-.28,1.28-.45,1.92Z" transform="translate(-4.35 -8.49)"/><path d="M92.32,102.13l4.49,3.4-.25.26A67.69,67.69,0,0,0,89,103.56a60.83,60.83,0,0,0-7.5-.44,17.92,17.92,0,0,1-2.19-11.46c.41-4.08,1.82-7.7,5.18-10.32,2.4-1.87,4.38-1.73,6.32.71A16.57,16.57,0,0,1,94.23,95,54.22,54.22,0,0,1,92.32,102.13ZM88.59,86.71,85.51,84c-.69,1-1.92,1.91-1.91,2.86s1.23,1.94,1.92,2.91Z" transform="translate(-4.35 -8.49)"/><path d="M74.53,106.92c2,1.84,1.67,3.81-.81,4.58a6,6,0,0,1-3.71.06c-1.07-.44-2.51-1.77-2.46-2.65s1.53-2.32,2.59-2.54c1.38-.28,3,.38,4.47.63a5.15,5.15,0,0,0-1.59-.14,6,6,0,0,0-1.91.9c-.1.07.13,1,.37,1.11.68.23,1.69.54,2.1.22S74.24,107.67,74.53,106.92Z" transform="translate(-4.35 -8.49)"/><path class="cls-6" d="M74.53,106.92c-.29.75-.4,1.74-1,2.17s-1.42,0-2.1-.22c-.24-.08-.47-1-.37-1.11a6,6,0,0,1,1.91-.9,5.15,5.15,0,0,1,1.59.14Z" transform="translate(-4.35 -8.49)"/><path d="M53.69,77.88A15.63,15.63,0,1,1,38.29,93.8C38.29,84.73,44.9,77.9,53.69,77.88Zm8.67,25.61c-5.58-.1-10.51-.09-15.06,2.91A12,12,0,0,0,57,107.78,14.27,14.27,0,0,0,67.82,96.09a14.7,14.7,0,0,0-7-14.82,14.39,14.39,0,0,0-16.27,1.58c-6.8,5.54-6.85,16.49,0,21.84.6.47,1.8.9,2.32.62a39.8,39.8,0,0,0,4.43-3.15,15,15,0,0,1-2.16-8.58c0-2.48,1.34-3,3.43-3.6l-3.12,2.9.57.76,11.9-5.49C63,93,62.91,97.6,60.49,102Z" transform="translate(-4.35 -8.49)"/><path class="cls-1" d="M62.26,103.18l-1.86-1.53c2.41-4.37,2.51-9,1.42-13.82l-11.9,5.49-.58-.76,3.12-2.9c-2.09.56-3.37,1.12-3.43,3.6a15,15,0,0,0,2.17,8.58A40.75,40.75,0,0,1,46.77,105c-.53.28-1.72-.15-2.33-.62-6.8-5.35-6.76-16.3,0-21.84A14.39,14.39,0,0,1,60.76,81a14.7,14.7,0,0,1,7,14.81,14.28,14.28,0,0,1-10.87,11.69,11.94,11.94,0,0,1-9.65-1.38C51.76,103.08,56.69,103.07,62.26,103.18ZM57.68,80.91c-3.12-1.16-5.4.1-6,3.18Z" transform="translate(-4.35 -8.49)"/><path d="M57.68,80.91l-6,3.18C52.28,81,54.56,79.75,57.68,80.91Z" transform="translate(-4.35 -8.49)"/><path class="cls-7" d="M72.51,123.53s-3.66-8.51-15.76-.24c7.55-7.32,14.5-7,14.5-7Z" transform="translate(-4.35 -8.49)"/><path class="cls-8" d="M88.27,122.81s-11.75-8-15.76.72c-.18-1.44,1.26-7.2,1.26-7.2C85.88,117.18,88.27,122.81,88.27,122.81Z" transform="translate(-4.35 -8.49)"/><path class="cls-9" d="M88.27,122.81c-17.62,10.91-31.52.48-31.52.48,12.1-8.27,15.76.24,15.76.24C76.52,114.78,88.27,122.81,88.27,122.81Z" transform="translate(-4.35 -8.49)"/><path class="cls-6" d="M54.31,84.44c-2.76-.31-2.93,4.66-1,5.7C56.48,91.8,58.24,84.88,54.31,84.44Z" transform="translate(-4.35 -8.49)"/><path class="cls-6" d="M86.1,83.92c-2.76-.31-2.92,4.66-1,5.7C88.28,91.28,90,84.35,86.1,83.92Z" transform="translate(-4.35 -8.49)"/><path class="cls-9" d="M130.28,19.37c.73-.16,1.31-.16,1.55.16a11.34,11.34,0,0,1,5.79,5.88,6.46,6.46,0,0,1-.73,5.71,13.6,13.6,0,0,1-1.71,2A9.45,9.45,0,0,1,121,30a2.13,2.13,0,0,1-.49-1.06,4.59,4.59,0,0,1,.08-4A10.18,10.18,0,0,1,128,19.61C128.65,19.53,129.46,19.53,130.28,19.37Zm2.37,55.81c.08.4.08.65.16.89a37.11,37.11,0,0,1,1.06,3.84c.41,1.63.82,3.26,1.14,4.89.33,1.15.65,2.37.9,3.51a38.09,38.09,0,0,1,.73,6.77,18.75,18.75,0,0,1-1.46,7,10.5,10.5,0,0,1-2,2.94,6.65,6.65,0,0,1-5.63,1.87,3.43,3.43,0,0,1-.9-.08,5.26,5.26,0,0,1-4-3.34,10.28,10.28,0,0,1-.65-3.84c0-4.81.08-9.63,0-14.36-.08-4.24-.16-8.48-.41-12.72-.16-3.84-.49-7.67-.65-11.59-.25-3.18-.33-6.36-.41-9.55-.08-3.42-.16-6.77-.16-10.19,0-.9-.08-1.8,0-2.7A2.64,2.64,0,0,1,122,36.18a2.39,2.39,0,0,1,3.1.57c.41.57.73,1.22,1.06,1.79a9.13,9.13,0,0,1,.49.9,11.1,11.1,0,0,1,3.18-2,9.26,9.26,0,0,1,6.61-.33c4.57,1.31,7.75,4.25,10.2,8.24A13.3,13.3,0,0,1,148,49.48a54.22,54.22,0,0,1,1,6.11c.33,4.82-.16,9.47-2.77,13.71A14.79,14.79,0,0,1,141,74.36a10.32,10.32,0,0,1-4.08,1.22A7.62,7.62,0,0,1,132.65,75.18ZM126,28.34c-.49.25-.57.25-.57.58,0,.08,0,.4.08.4a1.61,1.61,0,0,0,.73.41c.25-.16.25-.41.25-.73C126.28,28.92,126.28,28.59,126,28.34ZM127.91,103a2.29,2.29,0,0,0,2.45-1.63,6.3,6.3,0,0,0,.49-1.8,38.16,38.16,0,0,0,.82-6.85c-.08-1.31,0-2.7,0-4.08a12.59,12.59,0,0,0-.25-1.71h-.16c-.08,1.3-.25,2.61-.33,3.91A17.16,17.16,0,0,1,128.32,99c-.41.65-.73,1.31-1.06,2a5.14,5.14,0,0,0-.33,1A1,1,0,0,0,127.91,103Zm4.41-78a2,2,0,0,0-2.69-1.47,5,5,0,0,0-2,1.22A1,1,0,0,0,128,26.3c.32.58,1.3.66,2.12.66a3.1,3.1,0,0,0,1.71-.41A1.44,1.44,0,0,0,132.32,25Zm5.06,20.31a10.56,10.56,0,0,0-2.2-.89,8.32,8.32,0,0,0-3.51-.08,3.16,3.16,0,0,0-1.8.65,8.57,8.57,0,0,0-1.55,2,3,3,0,0,0-.32,1.47,8,8,0,0,0,.49,2.44,9.47,9.47,0,0,0,8.15,5.88c.58-.08,1.15-.08,1.72-.17a3.55,3.55,0,0,0,3.1-3.26A8.82,8.82,0,0,0,137.38,45.31Zm-4.65,25a2.91,2.91,0,0,0,2.45-.41,1.17,1.17,0,0,0,.57-1.71,3.84,3.84,0,0,0-.41-.73A5.92,5.92,0,0,0,130,65a2.26,2.26,0,0,0-.41.57,1.84,1.84,0,0,0-.08,2.69A4.94,4.94,0,0,0,132.73,70.36ZM131.34,82.6l-.73-.49c-.25.41-.33.74.08.9C130.93,83.17,131.26,83,131.34,82.6Zm8.73-20.72a1.17,1.17,0,0,0,1-.74,1.13,1.13,0,0,0-.33-1.22c-.08-.08-.32-.16-.4-.08a1.28,1.28,0,0,0-1,1.22C139.34,61.55,139.58,61.88,140.07,61.88Zm7.51-29.78a1.71,1.71,0,0,1-.17,1,4.67,4.67,0,0,1-2.85,2.69,3.09,3.09,0,0,1-2.78-.33l-1.14-.9a5,5,0,0,1-.81-3.1,4.23,4.23,0,0,1,2.28-3.75,2.05,2.05,0,0,0,.74-.41,2.38,2.38,0,0,1,2,.25,4.85,4.85,0,0,1,2.61,3.59A2.18,2.18,0,0,0,147.58,32.1ZM143.09,30l-.24-.09h-.25a1.94,1.94,0,0,1-.16.41c.16.17.16.17.32.17A2.67,2.67,0,0,1,143.09,30Zm1.55,3.18a1,1,0,0,0,.82-1.31,1.08,1.08,0,0,0-.66-.89c-.16-.25-.49-.25-.73.16-.25.16-.25.57-.25,1a2.55,2.55,0,0,0,.17,1C144.07,33.16,144.56,33.32,144.64,33.16Z" transform="translate(-4.35 -8.49)"/><path class="cls-9" d="M155.9,18.06c.73-.16,1.3-.16,1.55.17a11.29,11.29,0,0,1,5.79,5.87,6.49,6.49,0,0,1-.73,5.71,12.66,12.66,0,0,1-1.72,2,9.44,9.44,0,0,1-14.19-3.18,2.05,2.05,0,0,1-.49-1.06,4.59,4.59,0,0,1,.08-4,10.17,10.17,0,0,1,7.42-5.3C154.27,18.23,155.08,18.23,155.9,18.06Zm-4.24,9c-.49.24-.57.24-.57.57,0,.08,0,.41.08.41a1.72,1.72,0,0,0,.73.41c.25-.17.25-.41.25-.74C151.9,27.61,151.9,27.28,151.66,27Zm-.09,34.27c-.24-4.25-.32-8.49-.24-12.81a24.3,24.3,0,0,1,.82-5.88,17.6,17.6,0,0,1,2.69-5.22,7.23,7.23,0,0,1,5.87-3.1A5.37,5.37,0,0,1,165,35.52a7.11,7.11,0,0,1,2.44,4.74c.17,1.38.17,2.77.25,4.16v2.69h.16c-.16,2.69-.16,5.38-.32,8.08-.25,3.26-.57,6.52-.82,9.79-.08,1-.08,2-.16,2.93-.25,2.29-.41,4.66-.74,7-.41,3.18-.89,6.37-1.47,9.55-.24,1.79-.65,3.51-1,5.22A6.55,6.55,0,0,1,161,93.45a3.06,3.06,0,0,1-2.77.49,3.42,3.42,0,0,1-2.37-1.88,12.28,12.28,0,0,1-1.63-4.4c-.49-2.86-1-5.71-1.31-8.57-.41-3.59-.65-7.18-1-10.77C151.82,66,151.74,63.67,151.57,61.31Zm6.37-37.62a2,2,0,0,0-2.69-1.46,4.87,4.87,0,0,0-2,1.22,1,1,0,0,0,.32,1.55c.33.57,1.31.65,2.13.65a3.1,3.1,0,0,0,1.71-.41A1.44,1.44,0,0,0,157.94,23.69ZM157,81c-.25.41-.33.65,0,.9.08.08.41-.09.49-.17C157.61,81.3,157.29,81.13,157,81Zm2.28,9c.17-.16.33-.24.49-.4a4.41,4.41,0,0,0,1-2.78c0-1-.65-1.55-1.79-1.71a1.53,1.53,0,0,0-1.72,1.06,2.47,2.47,0,0,0-.16,1.06,5.45,5.45,0,0,0,.49,2.29A1.11,1.11,0,0,0,159.24,90Zm5.47-45a13,13,0,0,0-.41-2.53,4.71,4.71,0,0,0-3-3.51,19.33,19.33,0,0,0-1.95-.41c-.25.41-.49.74-.66,1.06a5,5,0,0,0-.16,3.92,25.4,25.4,0,0,0,1.06,2.61,50.3,50.3,0,0,1,3.84,9.46,6,6,0,0,1,.24.66,1.1,1.1,0,0,0,.33.32h.16a6,6,0,0,0,.41-1.3c.08-1.31.24-2.53.24-3.84C164.79,49.23,164.79,47.11,164.71,45Zm-1.14,17.7a2.44,2.44,0,0,0,.65-1.79,3.2,3.2,0,0,0-.41-1.8.93.93,0,0,0-1.47-.16,7.16,7.16,0,0,0-.89,1.55,2,2,0,0,0,.4,2.2A1,1,0,0,0,163.57,62.69Zm9.63-31.9a1.7,1.7,0,0,1-.17,1,4.67,4.67,0,0,1-2.85,2.69,3.09,3.09,0,0,1-2.78-.32c-.4-.33-.73-.57-1.14-.9a5,5,0,0,1-.82-3.1,4.23,4.23,0,0,1,2.29-3.75,2.24,2.24,0,0,0,.73-.41,2.36,2.36,0,0,1,2,.24A4.91,4.91,0,0,1,173,29.81,2.14,2.14,0,0,0,173.2,30.79Zm-4.49-2.12-.25-.08h-.24a2.19,2.19,0,0,1-.16.41c.16.16.16.16.32.16A2.31,2.31,0,0,1,168.71,28.67Zm1.55,3.18a.93.93,0,0,0,.81-1.3,1.07,1.07,0,0,0-.65-.9c-.16-.25-.49-.25-.73.16-.25.17-.25.57-.25,1a2.53,2.53,0,0,0,.17,1C169.69,31.85,170.18,32,170.26,31.85Z" transform="translate(-4.35 -8.49)"/><path class="cls-9" d="M170.83,77.13a48.26,48.26,0,0,1-1.39-11.83,41.2,41.2,0,0,1,1-7A99.31,99.31,0,0,1,174,45.48,46.28,46.28,0,0,1,179.56,35a22.34,22.34,0,0,1,4.16-4.57A10.35,10.35,0,0,1,188.78,28c4-.65,8.32.65,10.6,4.89a14.71,14.71,0,0,1,1.23,10.69A20.92,20.92,0,0,1,197,51a5.69,5.69,0,0,1-7.43,1.38A6.46,6.46,0,0,1,186.41,47a16.68,16.68,0,0,1,.17-2.12c0-.08-.09-.25-.09-.33a.29.29,0,0,0-.24-.08c-.49,1-1.06,2-1.55,3-.9,2-1.71,4.08-2.61,6.12a49.36,49.36,0,0,0-2.45,8.4c-.33,1.71-.73,3.43-1,5.22-.24,2.29-.24,4.57-.41,6.77a34.7,34.7,0,0,0,0,4.08,7.66,7.66,0,0,0,1.64,4.33,2.17,2.17,0,0,0,3,.41,5.74,5.74,0,0,0,1.8-2.13,22.32,22.32,0,0,0,1.55-5.14c.33-1.22.57-2.53.9-3.75a11.56,11.56,0,0,1,2.53-4.73A5.6,5.6,0,0,1,196.77,66a9.47,9.47,0,0,1,3,3,12.21,12.21,0,0,1,1.8,9.38c-.08.57-.17,1.14-.25,1.71a8.05,8.05,0,0,1-.81,3.35,42.78,42.78,0,0,1-2.12,4.16,12.9,12.9,0,0,1-16.89,5.14A17,17,0,0,1,174,85.54,33.46,33.46,0,0,1,170.83,77.13Zm14.77-67c.73-.16,1.3-.16,1.55.16a11.34,11.34,0,0,1,5.79,5.88,6.49,6.49,0,0,1-.73,5.71,13.68,13.68,0,0,1-1.72,2,9.44,9.44,0,0,1-14.19-3.18,2.13,2.13,0,0,1-.49-1.06,4.52,4.52,0,0,1,.08-4,10.18,10.18,0,0,1,7.42-5.31C184,10.31,184.78,10.31,185.6,10.15Zm-4.25,9c-.49.25-.57.25-.57.58,0,.08,0,.4.08.4a1.68,1.68,0,0,0,.74.41c.24-.16.24-.41.24-.73C181.6,19.7,181.6,19.37,181.35,19.12Zm6.29-3.34a2,2,0,0,0-2.7-1.47A5,5,0,0,0,183,15.53a1,1,0,0,0,.32,1.55c.33.58,1.31.66,2.12.66a3.13,3.13,0,0,0,1.72-.41A1.44,1.44,0,0,0,187.64,15.78Zm.32,16.4c.57.16.66.16,1.06-.49C188.37,31.36,188.29,31.44,188,32.18Zm3.67,55.48a1.68,1.68,0,0,0-1.22,1.47.9.9,0,0,0,.9.89,1.48,1.48,0,0,0,1.38-1.38A1.06,1.06,0,0,0,191.63,87.66ZM191,33.32a15,15,0,0,0,.82,2,12.52,12.52,0,0,0,4.08,3.92c.32.24.73.57,1.22.32s.33-.73.41-1.22V38a8.12,8.12,0,0,0-5.63-6.12c-.57-.08-.82.08-.9.57A3.37,3.37,0,0,0,191,33.32Zm5.63,50a19.79,19.79,0,0,0,1.63-7.5c-.08-.82-.16-2-.32-3.1a1.8,1.8,0,0,0-2.21-1.55c-.24.08-.57.24-.65.49a2.1,2.1,0,0,0-.41,1,7.61,7.61,0,0,0,.08,2.69,23.19,23.19,0,0,1,.41,2.45,13.37,13.37,0,0,1-.73,4.73c-.25.81-.57,1.55-.82,2.37a3.07,3.07,0,0,0-.08.89c0,.41.25.66.65.49l.74-.49A7.07,7.07,0,0,0,196.61,83.33Zm6.28-60.45a1.81,1.81,0,0,1-.16,1,4.69,4.69,0,0,1-2.86,2.69,3.07,3.07,0,0,1-2.77-.33L196,25.33a5,5,0,0,1-.82-3.1,4.24,4.24,0,0,1,2.29-3.76c.32-.16.49-.16.73-.41a2.41,2.41,0,0,1,2,.25,4.88,4.88,0,0,1,2.61,3.59A2.3,2.3,0,0,0,202.89,22.88Zm-6.2,22.35a2.16,2.16,0,0,0,.82-1.38c-.16-.33-.16-.66-.41-.82a1.13,1.13,0,0,0-.73,0,1.52,1.52,0,0,0-.49,2A.49.49,0,0,0,196.69,45.23Zm1.72-24.47-.25-.09h-.24a1.87,1.87,0,0,1-.17.41c.17.17.17.17.33.17A1.89,1.89,0,0,1,198.41,20.76ZM200,23.94a.94.94,0,0,0,.81-1.31,1.07,1.07,0,0,0-.65-.89c-.16-.25-.49-.25-.74.16-.24.16-.24.57-.24,1a2.7,2.7,0,0,0,.16,1C199.38,23.94,199.87,24.1,200,23.94Z" transform="translate(-4.35 -8.49)"/><path class="cls-9" d="M207.62,12.35c.74-.16,1.31-.16,1.56.17A11.32,11.32,0,0,1,215,18.39a6.46,6.46,0,0,1-.74,5.71,13.12,13.12,0,0,1-1.71,2,9.61,9.61,0,0,1-6.28,2A9.72,9.72,0,0,1,198.32,23a2.27,2.27,0,0,1-.49-1.06,4.55,4.55,0,0,1,.09-4,10.15,10.15,0,0,1,7.42-5.3C206,12.52,206.81,12.52,207.62,12.35Zm38.27,82.57a8.9,8.9,0,0,1-7.91,7.91,10.51,10.51,0,0,1-6.69-2.44,34.8,34.8,0,0,1-8.41-9.55,46.46,46.46,0,0,1-6.2-16.15,17.66,17.66,0,0,1-.32-1.8,33.51,33.51,0,0,1-1.31,6.86,56,56,0,0,1-3.51,9.3,25.84,25.84,0,0,1-2,3.26,8.14,8.14,0,0,1-2.53,2.2,5.1,5.1,0,0,1-3.1.57c-1.79-.24-2.77-1.38-2.2-3.34S203,87.9,203.55,86c.16-.58.24-1.15.4-1.72a64.54,64.54,0,0,0,1-6.85c.25-2.69.41-5.3.57-8a9,9,0,0,0,.09-1.55c.08-3.91.16-7.83-.09-11.75-.24-3.42-.65-6.93-1-10.36a48.61,48.61,0,0,1-.4-7.75,12.31,12.31,0,0,1,1.79-5.79,4.19,4.19,0,0,1,2.45-2,9.27,9.27,0,0,0,1.3-.65,7.06,7.06,0,0,1,8.08,1.14,9.16,9.16,0,0,1,2.61,3.92,15.78,15.78,0,0,1,1.06,5.87,30.93,30.93,0,0,1-1.22,9.87c-.57,2.12-.9,4.33-1.31,6.45a12.36,12.36,0,0,0-.16,1.71,3.19,3.19,0,0,0,.33-.57A87.08,87.08,0,0,1,227,46.13a17.87,17.87,0,0,1,6.53-5.55,8.56,8.56,0,0,1,4.65-1.06,5.78,5.78,0,0,1,5.55,6.28,7.39,7.39,0,0,1-1.8,4.17,12.81,12.81,0,0,1-3.42,2.85c-1.15.65-2.37,1.31-3.51,2-1.8.9-3.67,1.88-5.47,2.77a24.15,24.15,0,0,0-7.59,6.2,20.83,20.83,0,0,0-1.47,2,1.36,1.36,0,0,0-.16,1,16.93,16.93,0,0,0,.82,2.69c1,2,2,4.08,3.1,6.12a9.88,9.88,0,0,0,1.63,2,35.53,35.53,0,0,0,7.42,6.12c3,2,6,3.92,9.22,5.71a15.64,15.64,0,0,1,1.47,1A4.77,4.77,0,0,1,245.89,94.92ZM203.38,21.33c-.49.24-.57.24-.57.57,0,.08,0,.41.08.41a1.68,1.68,0,0,0,.74.4c.24-.16.24-.4.24-.73C203.63,21.9,203.63,21.57,203.38,21.33ZM209.66,18A2,2,0,0,0,207,16.51a5.15,5.15,0,0,0-2,1.23,1,1,0,0,0,.33,1.55c.33.57,1.31.65,2.12.65a3.13,3.13,0,0,0,1.72-.41A1.44,1.44,0,0,0,209.66,18Zm1.15,64.38a13.86,13.86,0,0,0,.16-1.88,1.09,1.09,0,0,0-.65-1.14.39.39,0,0,1-.17.32c-.65,2.29-1.22,4.49-1.87,6.69a8.11,8.11,0,0,0-.49,2,5.27,5.27,0,0,0,0,1.15c.33-.33.57-.41.73-.58a4.52,4.52,0,0,0,.66-1.06A27.43,27.43,0,0,0,210.81,82.36Zm-1.15-46.1c1.55.32,3.19.57,4.74.81a3.67,3.67,0,0,0,2.12.09A2.76,2.76,0,0,0,216,35a7.56,7.56,0,0,0-1.39-1.38A3.18,3.18,0,0,0,212,33a10.67,10.67,0,0,0-2.77,1.23,1.12,1.12,0,0,0-.57,1.22C208.69,36.1,209.26,36.18,209.66,36.26Zm1.55,40.87A.64.64,0,0,0,212,77c.25-.41.25-.73-.16-1.3a2.22,2.22,0,0,0-.49.57l-.17.16A.46.46,0,0,0,211.21,77.13ZM216,47.44a19.76,19.76,0,0,0,.33-4.33,2.35,2.35,0,0,0-.82-1.87,15,15,0,0,0-.41,1.55c-.33,2.44-.57,4.89-.73,7.42a17.39,17.39,0,0,0,.08,2h.24A32.84,32.84,0,0,0,216,47.44Zm8.89-22.36a1.81,1.81,0,0,1-.16,1,4.66,4.66,0,0,1-2.86,2.69,3.06,3.06,0,0,1-2.77-.32l-1.14-.9a5,5,0,0,1-.82-3.1,4.26,4.26,0,0,1,2.29-3.76c.32-.16.49-.16.73-.4a2.37,2.37,0,0,1,2,.24,4.91,4.91,0,0,1,2.61,3.59A2.28,2.28,0,0,0,224.92,25.08ZM220.43,23l-.24-.08H220a2.12,2.12,0,0,1-.17.41c.17.16.17.16.33.16A2.55,2.55,0,0,1,220.43,23ZM222,26.14a.94.94,0,0,0,.82-1.3,1.07,1.07,0,0,0-.65-.9c-.17-.25-.49-.25-.74.16-.24.16-.24.57-.24,1a2.67,2.67,0,0,0,.16,1C221.41,26.14,221.9,26.3,222,26.14Zm3.92,26.44a.74.74,0,0,0,.74-.74.48.48,0,0,0-.49-.49.8.8,0,0,0-.66.82A.39.39,0,0,0,225.9,52.58Zm1.55,35.32c-.33,0-.57.33-.65.74a.79.79,0,0,0,.81.9.81.81,0,0,0,.82-.74C228.51,88.48,227.94,88,227.45,87.9Zm7.34-44.14a4.78,4.78,0,0,0-1.55.82c-1.46,1.31-2.93,2.77-4.48,4.16-.17.16-.33.41-.49.57a.6.6,0,0,0,.4-.08c1.15-.81,2.29-1.55,3.43-2.28a11.07,11.07,0,0,1,5.06-1.72,2.71,2.71,0,0,0,1.71-.4,1.57,1.57,0,0,0-1.46-1.47A5.69,5.69,0,0,0,234.79,43.76Zm5.55,52.63a3.22,3.22,0,0,0,.9-1.63,1.46,1.46,0,0,0-1.71-1.8c-.33.08-.66.17-1.06.25a7.2,7.2,0,0,1-4.49-.57c-.82-.41-1.55-.82-2.37-1.23a4,4,0,0,0-1.06-.32,1.52,1.52,0,0,0-1.39.65c-.16.49.09.81.33,1.22a5,5,0,0,1,.65.65,13.66,13.66,0,0,0,4.41,3.68,4.73,4.73,0,0,0,2.77.65A4.35,4.35,0,0,0,240.34,96.39Z" transform="translate(-4.35 -8.49)"/><path class="cls-9" d="M275.26,99.33v1c-.16.49-.24,1.06-.41,1.55a6.07,6.07,0,0,1-2.77,2.93,11.69,11.69,0,0,1-4.16,1.39,15.78,15.78,0,0,1-11.83-2.94c-.41-.24-.9-.41-.82-1.06,0-.16-.16-.24-.32-.41a25.39,25.39,0,0,1-6.86-11c-1-2.94-1.55-6.12-2.28-9.14-.41-2-.41-4.08-.65-6.2,0-.41-.09-.82-.09-1.22,0-.74.09-1.47.09-2.21.16-3.83.08-7.75.4-11.58a49.05,49.05,0,0,1,7.59-22.68,22.32,22.32,0,0,1,3.18-3.67c.74-.66,1.47-1.23,2.21-1.88a8.06,8.06,0,0,1,2.69-1.55c.32-.08.57-.33.9-.41a7.53,7.53,0,0,1,9.38,3.59,6.82,6.82,0,0,1,.41,4.9,24.24,24.24,0,0,1-2.7,6.12c-1.14,2-2.44,3.83-3.59,5.87-3.67,6.85-6.93,14-8.64,21.62a66.06,66.06,0,0,0-1.88,11.42,18.38,18.38,0,0,0,.81,6.94,7.6,7.6,0,0,0,2,3.26,5.61,5.61,0,0,0,3.43,1.63,10.75,10.75,0,0,0,3.18-.32,14.63,14.63,0,0,1,7,.08,4.41,4.41,0,0,1,3.67,3.83C275.18,99.24,275.18,99.24,275.26,99.33Zm-25.7-27.5a105.66,105.66,0,0,1,1.8-13.38.7.7,0,0,0-.09-.41,1.42,1.42,0,0,0-.89.9,5.74,5.74,0,0,0-.41,1.31c-.25,2-.49,3.91-.65,5.87-.09,1.47-.09,2.94-.17,4.41,0,.4.17.89.17,1.3Zm10.85-58.66c.74-.16,1.31-.16,1.55.16a11.3,11.3,0,0,1,5.79,5.88,6.46,6.46,0,0,1-.73,5.71,14.12,14.12,0,0,1-1.71,2,9.45,9.45,0,0,1-14.2-3.18,2.21,2.21,0,0,1-.49-1.07,4.57,4.57,0,0,1,.08-4,10.15,10.15,0,0,1,7.43-5.31C258.78,13.33,259.6,13.33,260.41,13.17Zm-4.32,31.17a16.18,16.18,0,0,0-1.47,4.24c-.08.41-.08.81-.16,1.39a6.48,6.48,0,0,0,1.71-1.47c1.3-1.8,2.61-3.59,3.83-5.47.9-1.47,1.72-3,2.53-4.49a2.62,2.62,0,0,0,.33-.73,1.5,1.5,0,0,0-2-.08,7.54,7.54,0,0,0-1.55,1.3A27,27,0,0,0,256.09,44.34Zm.08-22.2c-.49.25-.57.25-.57.57,0,.09,0,.41.08.41a1.66,1.66,0,0,0,.73.41c.25-.16.25-.41.25-.73C256.41,22.71,256.41,22.39,256.17,22.14Zm6.28-3.34a2,2,0,0,0-2.69-1.47,4.94,4.94,0,0,0-2,1.22,1,1,0,0,0,.33,1.55c.32.57,1.3.66,2.12.66a3.19,3.19,0,0,0,1.71-.41A1.43,1.43,0,0,0,262.45,18.8Zm-2,82.65c.41.41.74.73,1.47.41A1.57,1.57,0,0,0,260.49,101.45Zm4.9-67.72a2.23,2.23,0,0,0-2.37.33c-.4.4-.49.89-.08,1.22a5,5,0,0,0,2.69,1.14c.66.16,1-.24,1-1A2.07,2.07,0,0,0,265.39,33.73Zm-.49,69.43a2.43,2.43,0,0,0,.82.33,5,5,0,0,0,4.16-1.72c.16-.32.49-.73.24-1.06s-.65-.24-1-.32a10.73,10.73,0,0,0-3.59,1.06,5.8,5.8,0,0,0-.73.57C264.33,102.51,264.33,102.92,264.9,103.16ZM277.71,25.9a1.82,1.82,0,0,1-.16,1,4.69,4.69,0,0,1-2.86,2.69,3.1,3.1,0,0,1-2.77-.33l-1.15-.9a5,5,0,0,1-.81-3.1,4.23,4.23,0,0,1,2.28-3.75,2.05,2.05,0,0,0,.74-.41,2.38,2.38,0,0,1,1.95.25,4.89,4.89,0,0,1,2.62,3.59A2.3,2.3,0,0,0,277.71,25.9Zm-4.49-2.12-.24-.09h-.25a1.94,1.94,0,0,1-.16.41c.16.16.16.16.33.16A2.3,2.3,0,0,1,273.22,23.78ZM274.77,27a1,1,0,0,0,.82-1.31,1.09,1.09,0,0,0-.66-.9c-.16-.24-.48-.24-.73.17-.24.16-.24.57-.24,1a2.7,2.7,0,0,0,.16,1C274.2,27,274.69,27.12,274.77,27Z" transform="translate(-4.35 -8.49)"/><path class="cls-9" d="M272.73,71.83a33,33,0,0,1-1.47-11.26c.08-2.28.33-4.57.57-6.85a83.11,83.11,0,0,1,1.8-10,42.62,42.62,0,0,1,5.22-12.4,15.94,15.94,0,0,1,4-4.4,10.13,10.13,0,0,1,10.36-1.39A9.2,9.2,0,0,1,297.37,29a14.32,14.32,0,0,1,2.45,7.42,19.31,19.31,0,0,1-2.94,10.77,5.42,5.42,0,0,1-6.28,2.37,6.59,6.59,0,0,1-4.73-6v-1.8c-1.23,1.8-4.25,12.16-4.25,14.28a12.73,12.73,0,0,0,3-.08A10,10,0,0,0,289,54.53a3.41,3.41,0,0,1,.81-.32,1.83,1.83,0,0,1,2.21.9,3.61,3.61,0,0,1,.4,2.61,4.88,4.88,0,0,1-2.52,3.5,16.58,16.58,0,0,1-4.9,1.39c-1.31.16-2.69.33-4.16.49,0,.25-.08.49-.08.74a51.76,51.76,0,0,0,.4,8.73c.09,1.06.25,2.12.33,3.18A8.35,8.35,0,0,0,283,79.58a6.64,6.64,0,0,0,1.14,1,2,2,0,0,0,2.29-.08,4.75,4.75,0,0,0,1.55-2,18.19,18.19,0,0,0,1.14-5.06c.25-1.79.41-3.67.65-5.47a11.37,11.37,0,0,1,1.8-4.07,5.57,5.57,0,0,1,7-1.8,7.84,7.84,0,0,1,2.53,1.8,12.17,12.17,0,0,1,3.68,7.91,7.06,7.06,0,0,1,0,1.3c0,1-.09,1.88-.09,2.86a9.29,9.29,0,0,1-.32,2.61,45.16,45.16,0,0,1-1.72,4.73,13.11,13.11,0,0,1-8.81,7.51,13.76,13.76,0,0,1-8.81-1,17.18,17.18,0,0,1-7.59-6.85A41.79,41.79,0,0,1,272.73,71.83ZM284.24,8.6c.73-.16,1.3-.16,1.55.16a11.38,11.38,0,0,1,5.79,5.88,6.46,6.46,0,0,1-.74,5.71,13.6,13.6,0,0,1-1.71,2,9.45,9.45,0,0,1-14.2-3.18,2.21,2.21,0,0,1-.48-1.06,4.52,4.52,0,0,1,.08-4A10.16,10.16,0,0,1,282,8.84C282.6,8.76,283.42,8.76,284.24,8.6Zm-4.25,9c-.49.25-.57.25-.57.58,0,.08,0,.4.08.4a1.63,1.63,0,0,0,.74.41c.24-.16.24-.41.24-.73C280.24,18.15,280.24,17.82,280,17.57Zm6.29-3.34a2,2,0,0,0-2.7-1.47,5.13,5.13,0,0,0-2,1.22,1,1,0,0,0,.33,1.55c.33.58,1.31.66,2.12.66a3.13,3.13,0,0,0,1.72-.41A1.44,1.44,0,0,0,286.28,14.23Zm-.41,15.17c.49.09.81-.08,1-.65C286.11,28.59,286,28.67,285.87,29.4Zm3,29.05a.83.83,0,0,0,.89-.82.87.87,0,0,0-.81-.73c-.33,0-.74.57-.74,1S288.48,58.45,288.89,58.45Zm0-29.13a4.38,4.38,0,0,0,.81,2.45,13.35,13.35,0,0,0,5.06,3.92c.08,0,.24.08.33.08.57.16.89-.08.89-.65.09-.09,0-.25,0-.41a4.41,4.41,0,0,0-1-2.78,7.74,7.74,0,0,0-3.67-2.77,6.88,6.88,0,0,0-1.71-.49C289.05,28.59,288.89,28.75,288.89,29.32Zm12.64-8a1.81,1.81,0,0,1-.16,1A4.69,4.69,0,0,1,298.51,25a3.07,3.07,0,0,1-2.77-.33l-1.14-.89a5,5,0,0,1-.82-3.11,4.24,4.24,0,0,1,2.29-3.75c.32-.16.49-.16.73-.41a2.41,2.41,0,0,1,2,.25,4.88,4.88,0,0,1,2.61,3.59A2.3,2.3,0,0,0,301.53,21.33Zm-5.38,62.74a1.4,1.4,0,0,0-1.23,1.3.85.85,0,0,0,.74,1.07,1.51,1.51,0,0,0,1.47-1.31A1.07,1.07,0,0,0,296.15,84.07ZM296,41.32a1.64,1.64,0,0,0,.49-1.8.57.57,0,0,0-1-.32c-.4.24-.57.65-.57,1.38a1.61,1.61,0,0,0,.25.66C295.41,41.56,295.66,41.56,296,41.32ZM297,19.21l-.24-.09h-.24a1.87,1.87,0,0,1-.17.41c.17.17.17.17.33.17A2,2,0,0,1,297,19.21Zm3.27,49a1.8,1.8,0,0,0-2.37-1,.88.88,0,0,0-.49.57,2,2,0,0,0-.24,1,5.8,5.8,0,0,0,.41,2.69,11.51,11.51,0,0,1,.57,2,14,14,0,0,1-.25,5.8,19,19,0,0,0-.41,2c-.08.4-.24.89.25,1.06s.81-.17,1.06-.49a7,7,0,0,0,1.55-2.7,23.36,23.36,0,0,0,.82-5.71A16.36,16.36,0,0,0,300.31,68.24Zm-1.72-45.85c.74-.08,1-.65.82-1.31a1.06,1.06,0,0,0-.65-.89c-.17-.25-.49-.25-.74.16-.24.16-.24.57-.24,1a2.7,2.7,0,0,0,.16,1C298,22.39,298.51,22.55,298.59,22.39Z" transform="translate(-4.35 -8.49)"/><path class="cls-9" d="M336.7,40.91A22.49,22.49,0,0,1,336,53c-.57,1.55-1.06,3-1.63,4.49A7.91,7.91,0,0,1,332.05,61a5.56,5.56,0,0,1-7.18.08,10,10,0,0,1-2.7-3.91,16.19,16.19,0,0,1-.73-10.37,16.7,16.7,0,0,1,2.45-6c.08-.09.08-.25.24-.41-3.18-.41-5.71.32-7.67,2.77a13.92,13.92,0,0,0-2.93,6,10.9,10.9,0,0,0,.16,5.38A7.77,7.77,0,0,0,315.57,58a22.59,22.59,0,0,0,2,1.88c3,2.61,6,5.3,9.14,7.75a35.94,35.94,0,0,1,3.76,4.16A16.45,16.45,0,0,1,332.86,76a13.7,13.7,0,0,1,1,7.26,22.76,22.76,0,0,1-.73,4.08,12.64,12.64,0,0,1-7.51,8.49,7.29,7.29,0,0,1-8-1.39,7.61,7.61,0,0,1-1.3-1.79,3.28,3.28,0,0,1-.25-2.62,6.32,6.32,0,0,1,1.64-3.09,2.41,2.41,0,0,1,3.26-.58c.41.17.9.41,1.31.58a4.34,4.34,0,0,0,3,.08,2.27,2.27,0,0,0,1.55-2.61,4.58,4.58,0,0,0-1.38-2.53,12.09,12.09,0,0,0-3.35-2.45c-.73-.41-1.55-.74-2.28-1.14-1.47-.82-2.94-1.64-4.41-2.53A17.27,17.27,0,0,1,307,63.67a29.34,29.34,0,0,1-.17-11c1.39-8.24,5.88-14.53,12.49-19.42a16.8,16.8,0,0,1,4.81-2.45,8.6,8.6,0,0,1,9.79,3.43A17.15,17.15,0,0,1,336.7,40.91ZM314.34,68.08c.16-.41,0-.65-.24-1-.25-.16-.41-.33-.66-.49a11.3,11.3,0,0,1-3-4.49A16.85,16.85,0,0,1,309,55.84h-.17v.73c0,1,0,1.88.09,2.78a23.08,23.08,0,0,0,1.87,7.34A6.41,6.41,0,0,0,312,68.4a1.45,1.45,0,0,0,1.38.49A1.25,1.25,0,0,0,314.34,68.08Zm9.06-55.65c.73-.16,1.3-.16,1.55.17a11.29,11.29,0,0,1,5.79,5.87,6.48,6.48,0,0,1-.73,5.71,12.66,12.66,0,0,1-1.72,2A9.44,9.44,0,0,1,314.1,23a2.05,2.05,0,0,1-.49-1.06,4.59,4.59,0,0,1,.08-4,10.17,10.17,0,0,1,7.42-5.3C321.77,12.6,322.58,12.6,323.4,12.43Zm-7.51,59c.08,0,.08.08.16.08a10.84,10.84,0,0,0,3.84,2.29c.24.16.57.08,1.06.16-.16-.41-.24-.73-.33-1a8.51,8.51,0,0,0-2.85-3,3.53,3.53,0,0,0-1-.32,1,1,0,0,0-1.22.57A1,1,0,0,0,315.89,71.42Zm3.27-50c-.5.24-.58.24-.58.57,0,.08,0,.41.08.41a1.79,1.79,0,0,0,.74.41c.24-.17.24-.41.24-.74C319.4,22,319.4,21.65,319.16,21.41ZM321.77,93c.49-.16.89-.24,1.38-.41A5.31,5.31,0,0,0,325.44,91c.16-.16.16-.4.24-.57a1.57,1.57,0,0,0-.65-.24,10.85,10.85,0,0,0-2.28,0,20,20,0,0,0-2.29.41c-.41,0-.57.24-.57.65a1.33,1.33,0,0,0,.9,1.39A4.49,4.49,0,0,0,321.77,93Zm3.67-74.9a2,2,0,0,0-2.69-1.46,4.87,4.87,0,0,0-2,1.22,1,1,0,0,0,.32,1.55c.33.57,1.31.65,2.12.65a3.11,3.11,0,0,0,1.72-.41A1.43,1.43,0,0,0,325.44,18.06Zm.32,34.68a.85.85,0,0,0,.49-.25c.25-.32,0-.57-.65-.81C325.44,52.41,325.44,52.74,325.76,52.74Zm2.12,35.74c-.65.24-.81.4-.89,1.06C327.88,89.7,328.13,89.37,327.88,88.48ZM329.27,58a4,4,0,0,0,2-1.55A9.59,9.59,0,0,0,332.7,53a30.45,30.45,0,0,0,.49-8.56,1.33,1.33,0,0,0-.65-1.31,1,1,0,0,0-.74,1,4.06,4.06,0,0,0,.08,1,14.27,14.27,0,0,1-.65,6.12,4.71,4.71,0,0,1-1.79,2.37,6.35,6.35,0,0,0-1.39,1.22,2.64,2.64,0,0,0-.82,1.06,1.67,1.67,0,0,0,.41,1.71A1.55,1.55,0,0,0,329.27,58Zm2.86-17.95c0-.4-.82-1-1.31-1s-1.22.66-1.22,1.15a1.23,1.23,0,0,0,1.22,1.06A1.34,1.34,0,0,0,332.13,40.09Zm8.56-14.93a1.79,1.79,0,0,1-.16,1,4.67,4.67,0,0,1-2.85,2.69,3.09,3.09,0,0,1-2.78-.32l-1.14-.9a5,5,0,0,1-.82-3.1,4.23,4.23,0,0,1,2.29-3.75c.32-.17.49-.17.73-.41a2.44,2.44,0,0,1,2,.24,4.91,4.91,0,0,1,2.61,3.59A2.26,2.26,0,0,0,340.69,25.16ZM336.21,23,336,23h-.24a2.12,2.12,0,0,1-.17.41c.17.16.17.16.33.16A2.31,2.31,0,0,1,336.21,23Zm1.55,3.18a.93.93,0,0,0,.81-1.3,1.07,1.07,0,0,0-.65-.9c-.16-.24-.49-.24-.73.16-.25.17-.25.57-.25,1a2.67,2.67,0,0,0,.16,1C337.19,26.22,337.68,26.39,337.76,26.22Z" transform="translate(-4.35 -8.49)"/><path class="cls-2" d="M190.85,129.16h-.28c-.53-.67-1-1.21-1.4-1.64a5.13,5.13,0,0,0-1.25-1,4.44,4.44,0,0,0-1.53-.5,14.19,14.19,0,0,0-2.25-.14h-.75a1.92,1.92,0,0,0-.75.14,9.46,9.46,0,0,0-1.07.07c-.43,0-.88.12-1.36.21l-1.35.29a8.49,8.49,0,0,0-1,.28l.07.22a18.39,18.39,0,0,0,3-.25,19,19,0,0,1,3.11-.25,7.94,7.94,0,0,1,2.32.36,7.47,7.47,0,0,1,2.11,1,5,5,0,0,1,1.5,1.64,4.62,4.62,0,0,1,.57,2.28,3.45,3.45,0,0,1-.18.72c-.12.38-.21.64-.25.78L188.28,135l-.21-.21.07-1.14a4.48,4.48,0,0,0-1.43-1.68,11.43,11.43,0,0,0-2.21-1.29,16.29,16.29,0,0,0-2.46-.85,8.94,8.94,0,0,0-2.25-.32,21.28,21.28,0,0,0-2.36.21q-1.63.21-3.78.57c-1.43.24-2.91.51-4.43.82s-2.95.63-4.28,1a27,27,0,0,0-3.36,1,3.82,3.82,0,0,0-1.64,1,14.94,14.94,0,0,1-.43,3.46c-.28,1.21-.6,2.42-1,3.64s-.71,2.42-1.07,3.64a29.25,29.25,0,0,0-.82,3.53c-.1.62-.17,1.25-.22,1.89a11.92,11.92,0,0,1-.28,1.9l-.07.14h-.15a17,17,0,0,1,.36-3.5c.24-1.14.51-2.28.82-3.43s.58-2.24.82-3.32a14.41,14.41,0,0,0,.36-3.17c0-.05-.07-.14-.21-.29a9.51,9.51,0,0,0-1.29,3.21c-.48,1.72-1,3.74-1.43,6.07s-.92,4.82-1.35,7.46-.82,5.15-1.18,7.53-.64,4.48-.86,6.28-.32,3-.32,3.57a15.27,15.27,0,0,0,.32,3.54,9.71,9.71,0,0,0,.68,1.93,4,4,0,0,0,.71,1,1.29,1.29,0,0,1,.43.82l.5.14.36-.07v-.22a5.78,5.78,0,0,1-1.57-3.53c-.14-1.4-.22-2.73-.22-4,0-.53.06-1.55.18-3.07s.26-3.12.43-4.78.35-3.21.54-4.61a9.46,9.46,0,0,1,.57-2.6,7.79,7.79,0,0,1,.21-1.86c.14-.57.31-1.17.5-1.79l.14-.14.22.36c-.67,3.19-1.2,6.45-1.61,9.78a83.16,83.16,0,0,0-.6,9.92,12.39,12.39,0,0,0,.1,1.5,12.21,12.21,0,0,0,.36,1.78,11.57,11.57,0,0,0,.61,1.72,3.34,3.34,0,0,0,.85,1.21c.1.29.19.62.29,1a.71.71,0,0,0,.78.57,5.74,5.74,0,0,0,3.57-1.5,22,22,0,0,0,3.68-3.89,46.08,46.08,0,0,0,3.5-5.39q1.68-3,3.1-5.89c1-1.92,1.78-3.74,2.47-5.46s1.2-3.09,1.53-4.14l.57-.71.79.71a10.09,10.09,0,0,1-.54,3.29,32.41,32.41,0,0,1-1.21,3c-.46,1-.88,1.92-1.29,2.82a7.58,7.58,0,0,0-.68,2.64.29.29,0,0,0-.14.43,16,16,0,0,0-1.35,2l-1.93,3.11c-.72,1.14-1.49,2.33-2.32,3.57s-1.67,2.38-2.5,3.42a19.59,19.59,0,0,1-2.43,2.61,4.44,4.44,0,0,1-2.17,1.18,2.39,2.39,0,0,1-.9.53c-.5.22-1.07.43-1.71.64a19,19,0,0,1-1.86.54,6.34,6.34,0,0,1-1.32.21h-.43a10.68,10.68,0,0,0-1.1-.35q-.54-.15-1.11-.36l-.07-.21q0-.15.21-.15h.08c0-.14-.1-.22-.29-.25a1.6,1.6,0,0,1-.43-.1,3.08,3.08,0,0,1-1.46-1,14.2,14.2,0,0,1-1.29-1.79,13.63,13.63,0,0,1-1-2c-.26-.69-.46-1.28-.6-1.75q-.8-2.87-1.54-5.53a21.26,21.26,0,0,1-.75-5.75q0-3.21-.18-6.39t-.17-6.39a63.32,63.32,0,0,1,1.92-15.49,30.35,30.35,0,0,0-3.35.47,17.8,17.8,0,0,1-3.36.32,24.37,24.37,0,0,1-4.32-.4,7.84,7.84,0,0,1-3.89-1.82V136l.29-.35a10,10,0,0,0,3.25,1.53,13.94,13.94,0,0,0,3.6.46h.29l-.43-.28a19.92,19.92,0,0,1-3.32-.79,15.19,15.19,0,0,1-3.35-1.5,9.41,9.41,0,0,1-2.61-2.28,5.15,5.15,0,0,1-1.07-3.28V129c.14-.38.28-.73.43-1a2.9,2.9,0,0,1,.64-.89,2.4,2.4,0,0,1,.71.07c.39.43.85.9,1.4,1.43a19,19,0,0,0,1.78,1.5,13.66,13.66,0,0,0,2,1.21,5.11,5.11,0,0,0,1.86.57l.36.22a12.12,12.12,0,0,1,3.24.57,11.56,11.56,0,0,0,3.4.5l3.49-.07.36-1.4c.19-.73.39-1.5.61-2.28s.4-1.51.57-2.18a3.48,3.48,0,0,0,.18-1.14l.28-.29a10.52,10.52,0,0,1,.75-2.78c.5-1.38,1.16-3,2-4.82s1.71-3.77,2.68-5.82,2-4,2.93-5.78,1.89-3.39,2.75-4.75a10.59,10.59,0,0,1,2.14-2.67l.07.21v.14q-1.29,1.86-2.78,4.29t-3,5.07c-1,1.76-1.85,3.49-2.64,5.21a26,26,0,0,0-1.68,4.71,3.67,3.67,0,0,0-.67,1.11c-.22.49-.42,1-.61,1.6s-.38,1.13-.57,1.68-.36,1-.5,1.32a4.8,4.8,0,0,1-.11.53c-.07.31-.17.66-.28,1s-.24.74-.36,1.07a6.59,6.59,0,0,1-.25.64c-.24.81-.46,1.67-.68,2.57s-.44,1.79-.68,2.64h.5a.12.12,0,0,1,0-.1.18.18,0,0,0,0-.11l.43-.43.07.14v.58h.15v-.79l-.36-.14a5.14,5.14,0,0,1,.21-1.22c.15-.52.31-1.08.5-1.67s.38-1.18.57-1.75.34-1,.43-1.43l.22-.21.5.21.43-1-.22-.07c-.19,0-.26,0-.21.11s0,0-.29-.11V125a12.52,12.52,0,0,1,1-4.07,53,53,0,0,1,2.61-5.71q1.61-3.08,3.67-6.28a64.92,64.92,0,0,1,4.18-5.82,29.46,29.46,0,0,1,4.14-4.29,6.07,6.07,0,0,1,3.6-1.67,3.78,3.78,0,0,1,2.89,1.1,7.39,7.39,0,0,1,1.58,2.72,14.35,14.35,0,0,1,.67,3.39c.1,1.19.15,2.21.15,3.07a30.07,30.07,0,0,1-.5,5.74,17.19,17.19,0,0,1-4.46,8.68,39.94,39.94,0,0,1-4.18,3.78,1,1,0,0,1-.46.54,7.55,7.55,0,0,1-.9.46,9.19,9.19,0,0,1-1,.36l-.71.21a10.48,10.48,0,0,1-.71,2.11,4.87,4.87,0,0,0-.5,2c1.9-.47,3.85-1.06,5.85-1.75s4-1.35,6-2,4.05-1.2,6.07-1.67a25.74,25.74,0,0,1,6-.72,8.6,8.6,0,0,1,3.82.86,5.1,5.1,0,0,1,2.53,3Zm-57.68,4.35-.07-.21h-.28l-.36.21.21.08h.43Zm2.43.86A1,1,0,0,0,135,134c-.1,0-.15.08-.15.22s-.07.19-.21.14a1.39,1.39,0,0,0-.46-.07h-.47l-.07-.14-.21.21a1.88,1.88,0,0,1,.71.43c-.09-.05-.07-.05.07,0a3.46,3.46,0,0,0,.54.14l.68.14a2.85,2.85,0,0,0,.5.08L136,135l-.5-.5Zm-1.64.5-.57.14c.19.1.37.18.53.25l.54.25h.21v-.14Zm3.42.14q.08-.13,0-.21l-.18-.14.21-.29v-.21a6.41,6.41,0,0,1-.67-.22,2.17,2.17,0,0,0-.61-.14l-.21.07.21.36a.27.27,0,0,0-.32-.07.23.23,0,0,0-.18.21l.21.14.36-.21.71.36h.22Zm.58.15-.08-.15h-.5l.08.15.21.14h.21Zm2.64-.36-.22-.14-.43.21.15.21.35-.07Zm2.5.21-.29-.14h-.43l-.57.21.07.22h.29a2.58,2.58,0,0,0,.78-.14ZM144,154.5a25.39,25.39,0,0,1,.39-4.42,39.66,39.66,0,0,0,.54-4.43l-.07.43a23.69,23.69,0,0,1,.57-4.46c.33-1.5.69-2.94,1.07-4.32a3.72,3.72,0,0,1-.86.07,46.29,46.29,0,0,0-1.46,7.14,58.45,58.45,0,0,0-.46,7.28,11.6,11.6,0,0,0,.07,1.35c0,.43.07.89.07,1.36l.07.07Zm1.36-6.92h-.15c0,.19-.1.42-.17.71a3.16,3.16,0,0,0-.11.71l.07.65.14.14.07-.29a4,4,0,0,0,.15-1Zm.64,13.77v-.78a2.22,2.22,0,0,1,.14-.79l-.14-.14v-1.36h-.07a2.68,2.68,0,0,0-.39,1.32c0,.5,0,1,0,1.4l.36.57Zm-.14,1.72v.07l.07-.36-.29-.5a.19.19,0,0,1,0,.25.36.36,0,0,0-.11.25v.72Zm2-9.93c0,.05.14,0,.28-.14-.19-.38-.36-.7-.5-1a4.92,4.92,0,0,0-.64-.89,1.62,1.62,0,0,0-.11.28.16.16,0,0,1-.18.14l-.21-.21.5-1.07-.07-.43-.43-.5-.14.14a1.69,1.69,0,0,0-.18.65,5.53,5.53,0,0,0,0,.71v.43a1.48,1.48,0,0,0,.5.36,2.07,2.07,0,0,1,.11.46,1,1,0,0,0,.18.46l.28-.21c.1-.1.16-.05.18.14a2.78,2.78,0,0,1,0,.36Zm-1.15-5.85a6.79,6.79,0,0,0,.33.71c.16.34.34.7.53,1.08a9.5,9.5,0,0,1,.46,1,2.19,2.19,0,0,1,.18.68.35.35,0,0,1,0,.14.27.27,0,0,0,0,.14c0,.1.11.12.18.08a.13.13,0,0,1,.18,0l.43-.29c-.1-.33-.21-.65-.32-1a4.06,4.06,0,0,1-.25-1c0-.05,0-.12.14-.21l.36.14.14-.14-.36-.65-.14.15v.35l-.14.08c-.15-.29-.36-.71-.65-1.25a5.17,5.17,0,0,1-.5-1.25l-.21-.29a1.14,1.14,0,0,0-.21.64,6.49,6.49,0,0,0-.08.65Zm.43-2.78-.21.35.28.43h.29l.14-.14-.28-.57Zm.07,15.77-.21-.21-.07.07v.36l.28-.15Zm.22-17.63a2.72,2.72,0,0,0,.43,1.43,7.67,7.67,0,0,0,1,1.35,11,11,0,0,0,1.29,1.18c.45.36.84.66,1.17.89l.29-.35a1.69,1.69,0,0,1,.21-.86c-.62-1.09-1.28-2.16-2-3.21a31.38,31.38,0,0,1-1.93-3.21h-.22a2.73,2.73,0,0,1-.07,1.39A4.68,4.68,0,0,0,147.38,142.65Zm.71,8.42a1.48,1.48,0,0,0-.43-.71l-.21.21.14.5.22.22Zm-.14,9.57a.23.23,0,0,0,0-.14.4.4,0,0,1,0-.15h-.22l-.07.22.22.28H148Zm-.29-5.35.5.71h.29l.64.29.29-.22v-.21a3.7,3.7,0,0,1-1.29-1.07l-.43.35Zm.5,3.28-.21-.5-.29.29v.28l.22.43H148l.14-.07.07-.36Zm-.28-26.34.07-.07V132l-.07.14Zm4.78,12.35h.07a4.93,4.93,0,0,0-.53-1.82c-.36-.79-.77-1.62-1.22-2.5s-.91-1.75-1.39-2.61a12.74,12.74,0,0,1-1-2.14l-.43.79a4.93,4.93,0,0,1-.14,1.18,4.79,4.79,0,0,0-.14,1.17q.93,1.29,1.71,2.43l1.25,1.93a11.18,11.18,0,0,1,.75,1.28l.57.57.43-.35Zm-3.85,16.92c0-.34-.09-.47-.25-.4a.39.39,0,0,1-.47-.1H148l.21.07a1.11,1.11,0,0,0,.22.71h.28Zm-.72-11a.06.06,0,0,1,.07.07v-.07Zm.57,12.85-.21-.28h-.14l-.15.5.15.21.14.07Zm.29-10.06-.07-.29-.22-.21h-.07l-.21.35.43.36Zm-.29,6.56.22-.35-.07-.36-.36-.07v.5l.14.28Zm.22-14.49a.21.21,0,0,1-.15-.07Zm.93,12.28-.5-.57H149l-.14.07.39.5c.21.29.34.43.39.43l.22-.07Zm.28-9.49v-.57l-.93-.93-.21.14V147a4.82,4.82,0,0,0,.86,1.57Zm6.71-13.35c-.24-1.33-.43-2.67-.57-4s-.33-2.66-.57-4a.78.78,0,0,1-.29-.5,3.82,3.82,0,0,0,.11-.57,1,1,0,0,0-.11-.57l-.5.43v.07l-.57-.07-.35-.71-.15-.07-.21.07-.22.71.22.43a.93.93,0,0,0,0,.57,4.17,4.17,0,0,1,.18.57l-.35.14-.15-.21-.5-.57.15-.64-.58-.5a.34.34,0,0,1-.28,0,.22.22,0,0,1-.14-.22l.14-.14.07-.5.21-.36-.07-.07-.64.29c-.09.33-.23.74-.39,1.21s-.34,1-.5,1.46-.31,1-.43,1.43a4.71,4.71,0,0,0-.18,1.18v.14l.22.36a5.71,5.71,0,0,1-.4,1.68c-.26.73-.44,1.29-.53,1.67-.1,0-.17.16-.22.47a2,2,0,0,1-.14.6l.22.72.14.07c.62,1.24,1.19,2.46,1.71,3.68s1.1,2.41,1.71,3.6c0-.05,0-.05,0,0a.43.43,0,0,1,0,.14l.21.29A14.22,14.22,0,0,0,153,140c-.19-1.11-.43-2.27-.72-3.46s-.55-2.36-.78-3.53a16.86,16.86,0,0,1-.36-3.39,4.28,4.28,0,0,0,0-.5.6.6,0,0,0-.25-.5,2.1,2.1,0,0,1,.22-1,5.3,5.3,0,0,1,.43-1,1.16,1.16,0,0,0,.35.25l.36.18a.23.23,0,0,1,0,.25q-.07.1-.21,0l-.5.43v2.29l.43.43a5.62,5.62,0,0,0-.11,2.71,33.14,33.14,0,0,0,.75,3.78c.33,1.34.65,2.64,1,3.93A13.9,13.9,0,0,1,154,144l.35.57c.1-.52.2-1,.32-1.5a6.16,6.16,0,0,0,.18-1.5,13.84,13.84,0,0,0-.57-3.93,38.45,38.45,0,0,1-.93-3.85,7.58,7.58,0,0,1,.57-1.14,22.28,22.28,0,0,0,.47,3.64l.75,3.57.21.14.07-.14.22-.79c-.05-.19-.1-.37-.15-.53a2.35,2.35,0,0,1-.07-.54l.29-.86-.07-.85a.68.68,0,0,1-.22-.61V135l-.21-.14V133.8l1-.14.14.14.07,1.78h.22Zm-7.21,27.48-.28-.28-.22.14.29.36Zm0-8.78h.22l.14-.14-.36-.36-.21.36Zm.5-6h.22v-.14s-.05-.07-.15-.07Zm.43,1.36h.07l-.21.22-.07.42.28.58a.18.18,0,0,0,.11,0,.15.15,0,0,1,.1,0l.08-.35c0-.1-.12-.23-.22-.4a.43.43,0,0,1-.07-.39l.71-.28v-.29c0-.14-.12-.29-.35-.43l-.29.29.14.5Zm.86,7.14a3.72,3.72,0,0,1,.07-.86l.64-.35.07-.15-.28-.14a1.83,1.83,0,0,1-.93.21c-.38,0-.57.22-.57.65l.78.71C151.3,156.07,151.38,156.05,151.38,156Zm-.79,27.63v-.08h-.07ZM152,153.14l.21-.07.29-.43v-.35l-.29-.22-1.07.08-.21.21c.09.19.19.37.28.53a.52.52,0,0,0,.5.25Zm-.15,5.36-.07-.07a.45.45,0,0,0-.35.14c-.1.1-.1-.1,0-.57l-.22-.22-.28.22v1l.28.07.64-.43Zm-.5,4.35a.38.38,0,0,0-.14-.28l-.21.28.21.22Zm1.36-11.49a1.7,1.7,0,0,1,.07-.79c.1-.38.17-.64.22-.78l-.5-.71c.09-.1.07-.16-.08-.18s-.16,0-.07.1l-.5-.35-.35.85c.09.39.2.75.32,1.11a2.82,2.82,0,0,0,.53,1h.07Zm-.71,1.78a.29.29,0,0,1,.21-.07V153a.4.4,0,0,0-.28.14Zm.85-4.35.29-.14v-.07a6.24,6.24,0,0,1-.5-.72l-.43-.71h-.07l-.14.71V148l.64.65v.14Zm.79-1.78a7.82,7.82,0,0,0-.72-2.22l-.28.72Zm1.35-22.85v.43l.43-.21v-.22l-.07-.14Zm2.65,10.42c0-.23.09-.45.14-.64a3.28,3.28,0,0,1,.21-.57,3.17,3.17,0,0,1,.32-1.39c.27-.69.44-1.15.54-1.39v-.29l-.5-.64a2.59,2.59,0,0,1,.29-.79l.28-.21v-.29h-.5l-.43.5-.07.43-.21.22c-.19,0-.29-.05-.29-.15a1.34,1.34,0,0,0-.1-.75,7.37,7.37,0,0,0-.33-.75l.36-.71a.4.4,0,0,0-.36-.43c-.23,0-.35-.24-.35-.57v-.07h.07l.43-.5.07-1.71c.19.09.36,0,.5-.22s.09-.31.14-.5a1.93,1.93,0,0,0,.07-.5v-.28c-.24,0-.37.15-.39.46s-.08.47-.18.47a.3.3,0,0,1-.18-.11l-.18-.18-.35.29-.93.07a.08.08,0,0,0,0,.14.19.19,0,0,0,.14.07v.79l.29.5-.15.21c0,.29,0,.67.08,1.14s.1,1,.17,1.47a12.57,12.57,0,0,0,.29,1.39c.12.43.23.78.32,1.07a5.83,5.83,0,0,0,0,1.32c0,.45.1.89.14,1.32h.36c-.1-.29,0-.43.36-.43v.29l-.07.43a2.22,2.22,0,0,0-.36.92c0,.34-.1.67-.14,1l.07.15c.19,0,.26-.1.21-.29Zm-1.65,5.79.22-.5.14-.07-.21-.29-.29.5v.29l.07.21Zm3.43-5.71.21-.79a.82.82,0,0,0-.21.07c-.1.05-.12.1-.07.15a9,9,0,0,0-.82,1.89,6.66,6.66,0,0,0-.32,2l-.07.14.21.22.07-.22c.24-.52.45-1,.64-1.53a6,6,0,0,0,.36-1.61Zm-.07-9.57-.14.07v.22l.14.28h.14l.36-.85-.22-.22-.21.07Zm11.64-23.56a5.58,5.58,0,0,0-1.5,2,30.13,30.13,0,0,0-1.54,3.6q-.75,2.07-1.5,4.5c-.5,1.62-1,3.19-1.43,4.71s-.84,2.93-1.17,4.21-.62,2.29-.86,3l.14.22a3.11,3.11,0,0,0,1.32-.43,11.83,11.83,0,0,0,1.65-1.07,11.4,11.4,0,0,0,1.42-1.32,4.61,4.61,0,0,0,.82-1.18,9,9,0,0,0,1.29-2.5c.47-1.24.91-2.58,1.32-4s.75-2.85,1-4.18a15.37,15.37,0,0,0,.43-2.93,9.46,9.46,0,0,0-.07-1.07,9.26,9.26,0,0,0-.25-1.32c-.12-.45-.24-.88-.36-1.28a4,4,0,0,0-.39-1ZM169.15,98h.64l.36.28.21-.14v-.07h-.42l-.58-.29Zm1.21,70.1a.84.84,0,0,1,.11-.18l.11-.18h-.14a1.63,1.63,0,0,1-.29.57l.21.14Zm1.43-1.15a.24.24,0,0,0-.14-.21.5.5,0,0,1-.22-.21l-.78.78-.07.43.28.36.72-1.15Zm.64-2.85.5-.86-.07-.21-.43.78Zm.72-2.07a1.11,1.11,0,0,1-.22.71l.15.07.35-.78v-.29h-.07Zm1.14-2.43a1.66,1.66,0,0,0-.29.46,1.48,1.48,0,0,0-.14.47l.07.07h.15l.5-1.36-.15-.21Zm2.28-32.34-.21-.14-.43.21h-.28l.21.22.71-.22Zm10.78,2.5.29.29.21-.07-.21-.43Z" transform="translate(-4.35 -8.49)"/><path class="cls-2" d="M211.05,153.14a9.91,9.91,0,0,1-.93,4.22c-.61,1.33-1.19,2.69-1.71,4.07a.37.37,0,0,0-.18.28,1.55,1.55,0,0,1-.1.36c-.29.52-.81,1.39-1.57,2.6s-1.61,2.45-2.54,3.72a35.17,35.17,0,0,1-2.75,3.32,4.07,4.07,0,0,1-2.21,1.49,6.64,6.64,0,0,1-1.93.82c-.66.17-1.35.33-2.07.47l-1.93-.71v-.08h.22l-.14-.14c-.05,0-.09.06-.11.18s-.08.13-.18,0a4.64,4.64,0,0,1-2.5-3,16.44,16.44,0,0,1-4.46,2.5,14,14,0,0,1-5,1,6.21,6.21,0,0,1-2.39-.35,23.07,23.07,0,0,1-2.18-1.14h-.07a4.84,4.84,0,0,1-1.21-.79v-.21a1.47,1.47,0,0,1-.86-.43,12.88,12.88,0,0,1-1-1,13.87,13.87,0,0,1-.93-1.1,3.07,3.07,0,0,1-.5-.86l.07-.07,1.65,1.57a8.35,8.35,0,0,0-.4-.93c-.26-.57-.54-1.25-.85-2s-.6-1.58-.86-2.39a6.86,6.86,0,0,1-.39-2,26.46,26.46,0,0,1,.57-5.53,19,19,0,0,1,1.78-5,15.45,15.45,0,0,1,3.18-4.1,14.57,14.57,0,0,1,4.75-2.89,7.14,7.14,0,0,1,2.28-.47,15.16,15.16,0,0,0,2.36-.25,4.6,4.6,0,0,0-1-.14h-1a7.65,7.65,0,0,0-2.64.5,13.2,13.2,0,0,0-2.61,1.29,16.78,16.78,0,0,0-2.36,1.78,13.19,13.19,0,0,0-1.82,2,31,31,0,0,0-2.32,3.68,10.2,10.2,0,0,0-1.25,4.17v.82c0,.46-.07.68-.21.68l-.21-.21a20.45,20.45,0,0,1,4.28-10.21,15.26,15.26,0,0,1,4.21-3.64,10.38,10.38,0,0,1,5.35-1.43,7.66,7.66,0,0,1,3.15.71,12.65,12.65,0,0,1,2.78,1.72l.64-.43v.21l-.35.43a2.58,2.58,0,0,0,.78,1.18,9.08,9.08,0,0,1,1,1.18,2.16,2.16,0,0,0,.07-.65,4.62,4.62,0,0,0-.11-1.07,1.52,1.52,0,0,0-.53-.85c0-.15.12-.29.36-.43a4.86,4.86,0,0,1,.85-.39,4.79,4.79,0,0,1,1-.25,4.55,4.55,0,0,1,.67-.07,4.28,4.28,0,0,1,1.79.39,3.81,3.81,0,0,0,1.57.39l.07-.07v-.14a1.58,1.58,0,0,0-1.14-.65,2,2,0,0,1-1.21-.5.13.13,0,0,1,.07-.21.58.58,0,0,1,.28-.07,2.59,2.59,0,0,1,1.54.43,5.61,5.61,0,0,1,1.1,1,9.6,9.6,0,0,1,.9,1.29,5.31,5.31,0,0,0,.89,1.17l-.15.15.15.85.07.08c.14,0,.21-.09.21-.25s.07-.25.22-.25v.07l.07.57a9,9,0,0,0-.22,1.5,14.28,14.28,0,0,0,0,1.85,9.79,9.79,0,0,1-.5,3.07c-.38,1.38-.82,2.86-1.32,4.43s-1,3.1-1.49,4.6a34.4,34.4,0,0,0-1,3.61c0-.1,0-.14-.07-.14a41,41,0,0,0,1-4.22,42.26,42.26,0,0,1,1.32-4.92l-.14-.07h-.07c-.24.71-.52,1.49-.86,2.32s-.66,1.69-1,2.57a26.19,26.19,0,0,0-.82,2.57,9.49,9.49,0,0,0-.32,2.32,3.42,3.42,0,0,0,.15.89,6.93,6.93,0,0,0,.35,1,2.75,2.75,0,0,0,.57.86,1.09,1.09,0,0,0,.79.36,4.16,4.16,0,0,0,1.07-.18,2.22,2.22,0,0,0,1-.54v-.07a41,41,0,0,0,3.35-3.85,42.91,42.91,0,0,0,3.14-4.64,47,47,0,0,0,2.54-4.93,24.12,24.12,0,0,0,1.6-4.85l.29-.22Zm-33.12,6.64.43-1.14s-.1-.09-.29-.14a1.93,1.93,0,0,0-.35-.07l-.08.14-.42-.07,1.14-1.14c.38,0,.6-.11.68-.32s.15-.47.25-.75l-.15-.15-1.21.43-.14-.28.28-.29-.14-.14-.93.64-.21-.21.43-.58-.08-.14H177l-.35.22-.15-.15v-.14c.24-.19.47-.36.68-.5a1.2,1.2,0,0,0,.46-.71l-.07-.22-.07.15c-.33.23-.7.52-1.1.85a1.86,1.86,0,0,1-1.18.5l-.07-.07a5.12,5.12,0,0,1,.67-.82,1.31,1.31,0,0,0,.4-1l-.07-.08h-.08c-.28.24-.64.53-1.07.86a1.44,1.44,0,0,0-.64,1.14l.29.36a2.19,2.19,0,0,0-.57.43.85.85,0,0,0-.29.64l.07.22,1.86-1.08.07.15-2.43,2.14v.07h-.07v.14c.05,0,.07,0,.07-.07s0,0,.14,0a3.42,3.42,0,0,0,.93-.57l.86-.71.28.21-.28.43a2.17,2.17,0,0,0-.54.39l-.46.47.07.07-.43.21h-.07v.14c.1,0,.14,0,.14-.1s.05-.06.15,0a2.48,2.48,0,0,1,.5-.53c.28-.26.59-.53.92-.79s.79-.58,1.36-1l.29.21-3.43,3.29-.21.07-.22-.36-.21.07-.29.36.36.28-.22.5v.15h.15l.85-.5.15.07.14,1.07.21.07-.07.36a2.23,2.23,0,0,0,.64-.4.76.76,0,0,0,.29-.6.41.41,0,0,0-.43-.14c.24-.24.51-.53.82-.86a3.48,3.48,0,0,0,.68-1,.41.41,0,0,1-.43-.14l.72-.57.57.28v.22l-1.36,1.49a.23.23,0,0,0,0,.25.23.23,0,0,0,.22.11,7.49,7.49,0,0,1,.82-.71,1.19,1.19,0,0,0,.46-1v-.14l.21.14v.35l.08.15Zm-5.07-.21.07.07.43-.43-.14-.07Zm.36-2.07v.07h.07l.14-.07-.07-.21Zm.5,6.78.21-.14a5.08,5.08,0,0,1-.14-1.18v-1.18l-.14-.07-.15.07-.14.36c0,.38.1.73.14,1a6.56,6.56,0,0,1,.08,1Zm1.14,7s0,.06,0,0a.15.15,0,0,0,0-.1.07.07,0,0,1,.07-.08l-1.14-1h-.14Zm-.71-6.78.07.14.28-.22-.21-.21-.14.21Zm.64-1.08-.07-.21.07-.07-.14-.14-.29.21Zm-.14,2.22h.14l.07-.07c0-.15-.07-.22-.21-.22l-.07.07Zm.64-2.22v-.28h-.14l-.36.28-.07.22.07.21.21-.07Zm-.14,8.36.14-.07.28.14.15-.07-.43-.36h-.07l-.07.07Zm1.5-8.43v-.28h-.15l-.28.57v.14l-.5.14-.07.36.21.43c.19-.1.24-.21.14-.36l.36-.07.21-.21Zm-.58,2.36a.32.32,0,0,0,0-.14.28.28,0,0,1,0-.15l-.14.22a.48.48,0,0,0,.14.35l.07-.07Zm0,6.35A.06.06,0,0,1,176,172h-.07a.06.06,0,0,0,.07.07Zm.79-10.28c-.05-.09-.05-.14,0-.14s.07,0,.07-.07l-.07-.22-.71.57-.08.22v.43l.08.07Zm-.43,11,.29-.15a.26.26,0,0,0-.07-.14.09.09,0,0,0-.15,0l-.43-.43.43.43Zm.29-20.42.07.14a.58.58,0,0,0,.21-.35v-.08h-.07Zm.92,10v-.21l-.07-.07h-.14c-.24,0-.38.15-.43.46a4.65,4.65,0,0,0-.07.68v.14l.14.22h.22Zm-.5-8.56.08.07,1.35-1.64v-.15h-.07Zm.22,7.78a3.81,3.81,0,0,1,.36-.43.73.73,0,0,0,.14-.5l-.07-.07h-.07l-.22.07-.21.79Zm1.21-7.28-.71.85a.55.55,0,0,1,.43.43.21.21,0,0,0-.07.14c0,.1,0,.15.14.15l.57-.5-.14-.07-.57.21-.08-.21v-.08l.93-.78-.21-.14Zm0-.72-.35.43a.76.76,0,0,1,.35.29l-.07-.22Zm.36,20v-.07a.69.69,0,0,1-.5-.21l-.21.07.07.07.5.21Zm-.21-11.85a.66.66,0,0,0-.22.5v.07c.19-.19.29-.33.29-.43Zm5.56,10.21a3.29,3.29,0,0,0,1.29-.36,15.61,15.61,0,0,0,1.6-.85c.55-.34,1.08-.68,1.58-1s.91-.63,1.24-.82a21,21,0,0,1-.32-4,34.86,34.86,0,0,1,.32-4.1c.19-1.36.44-2.72.75-4.07l.9-4c.09-.38.22-.86.39-1.43a5.17,5.17,0,0,0,.25-1.43H192a5.2,5.2,0,0,0-1.21-1.61,5.67,5.67,0,0,0-1.71-1,4.91,4.91,0,0,0-2.9.89,9.77,9.77,0,0,0-2.24,2.29,15.19,15.19,0,0,0-1.72,3.17q-.71,1.79-1.32,3.54c-.4,1.16-.76,2.28-1.07,3.35a19.14,19.14,0,0,1-1,2.68c-.05.52-.11,1-.18,1.46a9.66,9.66,0,0,0-.11,1.47,5.87,5.87,0,0,0,1.47,4.28A5.65,5.65,0,0,0,184.28,171.92Zm-5.71-18.35h.07v-.07Zm.15-.14v-.07c-.05,0-.08,0-.08.07v.07Zm.92-.57c-.28-.1-.43,0-.43.21v.15l.43.07.29-.29-.07-.21Zm-.28-.93.07.14h.14l.07-.14.36-.5a.86.86,0,0,0,.36.32c.14.07.21,0,.21-.32l-.5-.21-.28.07Zm10.71,13.85.14.14.07-.85-.14-.15-.15.22Zm5.21-.57-.07-.14a12.7,12.7,0,0,0-1.25-.93,2.67,2.67,0,0,0-1.47-.5.66.66,0,0,1-.25.25.31.31,0,0,1-.32,0l-.14-.5-.14-.07c-.1,0-.16,0-.18.11a.17.17,0,0,0,0,.18l-.21.28-.21-.14H191v.07l.57.57.93.36h.07l.29-.21a6.36,6.36,0,0,0,1,.57,6.71,6.71,0,0,0,1.07.35Zm-3.5-2.43-.57-.36-.14.15v.07l.57.28.14-.07Zm.14,5.36q0-.44,0-1.08a.77.77,0,0,0-.61-.78l-.14-.14-.07.07v.21l.64,1.86Zm-.14-6.22.21-.28-.14-.5-.07-.07-.43-.07-.21.14v.21Zm.28-2.07-.14-.49-.07-.22h-.14a.36.36,0,0,0-.36.32,2.42,2.42,0,0,0-.07.54v.14l.07.14.5.29.14-.07Zm-.78,5.43.07.21.14.08h.07l.15-.36-.07-.22-.22-.14-.14.14Zm.71-10.21.15-1.14-.22-.36c-.09.29-.19.61-.28,1a3.77,3.77,0,0,0-.15,1v.29h.15l.21-.72Zm.15,3.5.07-.14-.43-1.07-.14.5.35.71Zm-.08,7.21c.15,0,.22-.07.22-.21l-.22-.36-.07.07-.07.21.07.22Zm0-10.14.29.65.14-.15.07-.78v-.07l-.21-.29-.29.14.08.15Zm.65-1.5v-.64l-.36.86.07.43h.07l.15-.08Zm.42,5.86-.64-.5-.07.21.22.29-.29.71.64.64-.28.08a.74.74,0,0,1-.18,0c-.07,0-.11,0-.11.18a.36.36,0,0,0,.11.25c.07.07.06.15,0,.25l.29.43a1.17,1.17,0,0,0,.5-.08l.57.15.07-.07v-.15l-.93-.85v-.15a1.16,1.16,0,0,1,.32.11c.17.07.25.06.25,0a1.06,1.06,0,0,0-.25-.5c-.16-.24-.27-.41-.32-.5l.14-.36Zm-.35,2.57-.36.07a3.85,3.85,0,0,0,.86.64l1,.57a2.54,2.54,0,0,1,.64.22c.19.09.4.19.64.28,0,.05,0,.06,0,0a.18.18,0,0,0,0-.11.21.21,0,0,1,.08-.14,1.13,1.13,0,0,0-1.15-.72h-.07l-1.64-.71Zm2.14,3.78-.07-.28-1.14-.22s0-.07-.11-.07-.11,0-.11.07l-.85-.14-.15-.22-.07.08v.35l.36.07.35.5c.1.1,0,.19-.17.29s-.21.21,0,.36l1,.57.36-.07.14-.15.14-.35-.5-.15c.1-.23.17-.35.22-.35s0-.15-.07-.43l.43.28Zm-2.14-9.28a2.41,2.41,0,0,0,.35.71h-.35l-.14.29.71,1.5-.22.43a1.67,1.67,0,0,1,.58.57.64.64,0,0,0,.57.36v-.15l-.15-.71a1.71,1.71,0,0,1,.58,1.21,1.28,1.28,0,0,0,.53.61c.26.17.39.35.39.53a.44.44,0,0,0-.21.36l.29.29h.14a1.64,1.64,0,0,1,.36-.5,3.15,3.15,0,0,0,.35-.43l-.14-.36.14-.57-.21-.5-.14.72-.22.14-.36-.14a6.38,6.38,0,0,1-.67-.83c-.22-.31-.42-.63-.61-1l-.14-.07-.08.43-.42-.72a.51.51,0,0,0-.11-.6.82.82,0,0,1-.25-.61l.21-.29-.28-.57a1.34,1.34,0,0,1-.15-.64l-.21.07Zm.28-2.5.07.22h.65l.14-.15-.14-.21-.43-.14Zm.07,2,.58-.21a3.76,3.76,0,0,0,.35,1.57l.86,1.5a.14.14,0,0,0,.11,0,.15.15,0,0,1,.1,0,4.35,4.35,0,0,1-.39-1.22,6.5,6.5,0,0,0-.32-1.21c.09-.05.13-.11.11-.18s-.09-.08-.18,0l-.36-1.35a1,1,0,0,0-.43-.15h-.14l-.36.65Zm0,16.85h-.07l.07.14Zm.22-20a1.47,1.47,0,0,0,.28.57l.08-.07a1.86,1.86,0,0,0-.22-.79h-.07Zm.57,7.71a.21.21,0,0,1-.07-.14l-.07.07.07.14Zm0,.29a1.59,1.59,0,0,0,.57.64l.07-.07-.43-.72ZM194,153l.36.36.36-.14h.35l.07-.15-.07-.21h-.93Zm.36,9.42a.1.1,0,0,0-.14,0,.22.22,0,0,0-.08.15l.79.57c.09,0,.14,0,.14-.07V163Zm.21-8.63-.21.14.14.07h.14l.08-.07Zm-.07,3h.14a8.92,8.92,0,0,0,.33.92c.11.29.25.57.39.86,0,.05,0,.06,0,0a.14.14,0,0,0,0-.11c0-.05,0-.07.07-.07v-.57c.1,0,.14,0,.14.07.15.43.31.84.5,1.25a10.51,10.51,0,0,1,.5,1.25l.07.07.29-.57-1-2.15a.43.43,0,0,0,.29-.32,2,2,0,0,0,.07-.46l-.14-.64.14-.36-.07-.36.14-.07h.21l.22.14h.07a.91.91,0,0,0-.54-.85,4.15,4.15,0,0,1-.89-.64l-.21-.15c-.19,0-.29.07-.29.22l.07.42-.28.15-.36-.29-.07.07.43,1.29Zm.79,3-.07-.07-.08.07.08.15.07-.08Zm0,8.78v-.07l-.07-.07a.23.23,0,0,0-.08.14l.08.07Zm.21-4-.14-.07-.07.07.14.07Zm0-11.14.07.07.07-.14-.07-.07Zm.5.71.29.29v.07h.07l.07-.07a.06.06,0,0,0-.07-.07s-.07,0-.07.07l-.22-.36H196Zm.71,3.72v.21l.36.36.07-.07Zm.36-1.57a.06.06,0,0,0,.07.07.06.06,0,0,1,.07-.07.07.07,0,0,1-.07-.08Zm.14.78s0-.07-.07-.07-.07,0-.07.07a.06.06,0,0,1,.07.07A.07.07,0,0,1,197.2,157.07Zm-.07,1.71-.07.08.07.28h.22V159Zm.15-1.42.21.42h.07l.07-.14-.28-.35h-.07Zm.92-11.57v.07a2.27,2.27,0,0,1,.36.29l.29.28.07-.07-.5-.64h-.14Zm.57,12.64.08.21a12.72,12.72,0,0,0,1-2.68c.19-.83.38-1.74.57-2.74l-.15-.22-.07.07a13.88,13.88,0,0,1-.64,2.32,6.68,6.68,0,0,0-.43,2.32Zm1.08-7.86h.07a.21.21,0,0,0,.14-.07l-.07-.14-.14.07Zm1.64,20.06a.06.06,0,0,0,.07-.07v-.07a.21.21,0,0,1-.14.07A.07.07,0,0,1,201.49,170.63Zm5.71-8a.69.69,0,0,1,.21-.5.8.8,0,0,0-.28.36Zm1-1.07h.07a.21.21,0,0,0-.07-.14.21.21,0,0,1-.07-.15,2.63,2.63,0,0,0-.72.72v.14l.14.28h.08l.42-.78Zm.85-2.71-.21.21-.07.43.07.07s.09,0,.14-.14a.53.53,0,0,0,.07-.22Zm.43-1-.35.64.07.14.07-.14.21-.43Zm.14-.22a.39.39,0,0,0,.08-.28v-.07s0,.11-.15.21v.14Zm.29-.71.36-.86-.07-.14-.43,1,.07.14Zm.43-1.29s.07,0,.07-.07h-.07Zm.14-.43h-.07l.07.08Z" transform="translate(-4.35 -8.49)"/><path class="cls-2" d="M232.82,161.85a2.94,2.94,0,0,1,.58.29c.33.19.5.31.5.36a3.6,3.6,0,0,1-1.4,2.32,24,24,0,0,1-3.28,2.57,41.15,41.15,0,0,1-3.75,2.21,19.19,19.19,0,0,1-2.78,1.25l-.15.21c.1.34.21.68.33,1a3.47,3.47,0,0,1,.17,1,.21.21,0,0,1-.07.15l-.14.14a5.92,5.92,0,0,0,.25,1c.12.36.23.7.32,1l.14.28.08-.28a10.87,10.87,0,0,0-.11-1.32,3.08,3.08,0,0,1,0-1.25q.22,1.22.54,2.43a9.52,9.52,0,0,1,.32,2.42A11.52,11.52,0,0,1,223,183.3a16.07,16.07,0,0,1-3.64,4.57A17.79,17.79,0,0,1,214.3,191a14.87,14.87,0,0,1-5.6,1.14,25.39,25.39,0,0,1-5.46-.57,9.22,9.22,0,0,1-4.68-2.71,8.6,8.6,0,0,1-.54-1.54,7.41,7.41,0,0,1-.17-1.6,6.27,6.27,0,0,1,1.32-3.64,19.8,19.8,0,0,1,3.17-3.47,28,28,0,0,1,3.89-2.82,18.55,18.55,0,0,1,3.54-1.71,8.24,8.24,0,0,1,1.21-.39c.48-.12.94-.25,1.39-.39a12.34,12.34,0,0,0,1.29-.5,4.66,4.66,0,0,0,1-.65c-.47-.9-1.07-1.92-1.78-3.07s-1.39-2.32-2-3.53a34.62,34.62,0,0,1-1.67-3.64,9.1,9.1,0,0,1-.72-3.32,11.23,11.23,0,0,1,.43-2.25c.29-1.12.63-2.27,1-3.46a31.57,31.57,0,0,1,1.25-3.18c.42-.93.78-1.39,1.07-1.39l.14.14a.43.43,0,0,1,0,.22s0,.12.18.21c.76-.71,1.57-1.43,2.43-2.14a11.51,11.51,0,0,1,2.71-1.71l1.14-.43a.21.21,0,0,1,.15-.07c.14,0,.21,0,.21-.07l-.14-.08a8.54,8.54,0,0,0-2.25,1,8.51,8.51,0,0,1-2.18,1l-.21-.21.07-.14a8.89,8.89,0,0,0,1.64-.68c.48-.26.94-.52,1.39-.79A7.28,7.28,0,0,1,219,144a7.37,7.37,0,0,1,2-.25,8.63,8.63,0,0,1,5.42,1.75,6.05,6.05,0,0,1,2.29,5.1,9.36,9.36,0,0,1-.61,3.36,8.27,8.27,0,0,1-4.36,4.64,7.7,7.7,0,0,1-3.32.71,5.17,5.17,0,0,1-1.42-.28,12.29,12.29,0,0,1-1.82-.72,9.49,9.49,0,0,1-1.54-.89c-.43-.31-.64-.6-.64-.89l.36-.21v-.08a2.72,2.72,0,0,1-.57-.71c-.05.05-.15,0-.29-.14l.29-.22a4.34,4.34,0,0,0,1-.1,3.82,3.82,0,0,1,1-.11l.43-.29-.36.07a2.35,2.35,0,0,1-.6.08,3.18,3.18,0,0,1-.57,0c-.17,0-.25-.08-.25-.18a9.48,9.48,0,0,0,1.53-.46,11.48,11.48,0,0,0,1.11-.54l1-.57c.33-.19.76-.4,1.28-.64l.22.14c-.57.38-1,.68-1.4.89s-.7.43-1,.65l-.64.39v.14a2.94,2.94,0,0,0,1.21-.35,8.21,8.21,0,0,0,1.39-.9l1.32-1a10.29,10.29,0,0,0,1-.86l.29.22c.14-.15.26-.19.35-.15l.43-.43a.15.15,0,0,0-.21,0,.25.25,0,0,1-.22.11h-.21v-.07l.36-.79-.15-.07-.35.21a5,5,0,0,1-.82.9c-.31.26-.61.53-.9.82l-.28-.15,1.11-1.1c.49-.5,1-1,1.49-1.61a18.32,18.32,0,0,0,1.29-1.64,1.85,1.85,0,0,0,.46-1.21c-.24-.48-.51-.73-.82-.75s-.68,0-1.1,0a6.72,6.72,0,0,0-3.39,1,12.5,12.5,0,0,0-3,2.43,13.7,13.7,0,0,0-2.18,3.25,7.93,7.93,0,0,0-.86,3.43,6.34,6.34,0,0,0,1,3.17,35.35,35.35,0,0,0,2.43,3.57c.92,1.22,1.83,2.43,2.71,3.64a14.89,14.89,0,0,1,1.89,3.32l.21.22a3.93,3.93,0,0,0,1.43-.5c.67-.34,1.37-.72,2.11-1.15s1.43-.85,2.07-1.28a9.77,9.77,0,0,0,1.32-1,6.32,6.32,0,0,0,.68-.54c.35-.3.73-.66,1.14-1.07s.78-.77,1.14-1.1a3.84,3.84,0,0,0,.61-.65c0-.09.09-.21.14-.35S232.73,161.85,232.82,161.85Zm-22.34,24a11.16,11.16,0,0,0,3.39-3.07,10.72,10.72,0,0,0,1.54-4.28v.43a12.23,12.23,0,0,1,.07-1.33c0-.45.07-.89.07-1.32v-.53a5.92,5.92,0,0,0-.07-.82c0-.29-.1-.55-.15-.79a.93.93,0,0,0-.14-.43,15.8,15.8,0,0,1-3.69,1.75,48.61,48.61,0,0,0-5,2.14,18.25,18.25,0,0,0-4.41,3,6,6,0,0,0-1.88,4.49,2.33,2.33,0,0,0,1.24,2,4.35,4.35,0,0,0,2.31.79,8.25,8.25,0,0,0,3.45-.89,14.16,14.16,0,0,0,3.44-2.32,14.7,14.7,0,0,0,2.63-3.18,6.55,6.55,0,0,0,1.07-3.39h.35a6.56,6.56,0,0,1-1.46,4.14,36.9,36.9,0,0,1-3,3.35Zm2.64-17.78v-.21l-.35-.57A6.58,6.58,0,0,0,212,165l-1.18-2a13.61,13.61,0,0,1-1.07-2.39,11.25,11.25,0,0,1-.46-3.57l.07-.07c0-.24.11-.51.18-.82a1.93,1.93,0,0,0,0-.82l-.07-.07c-.09,0-.14,0-.14.07-.1.52-.19,1-.29,1.53a8.65,8.65,0,0,0-.14,1.54,7.58,7.58,0,0,0,.39,2.07c.26.85.57,1.74.93,2.64a26.36,26.36,0,0,0,1.18,2.57,6.09,6.09,0,0,0,1.21,1.71h.07v.36l.36.43Zm-3.64,18.21h-.21l-.22.14c-.09,0-.14,0-.14.07l.07.07h.14l.08-.07.21-.07Zm0-31.56a.15.15,0,0,0,0,.18.16.16,0,0,0,.17.11s.12-.11.22-.32.19-.44.28-.68a3.86,3.86,0,0,0,.22-.71,4.28,4.28,0,0,0,.07-.5l.07-.07v-.22Zm.14,2.43a.29.29,0,0,0,0,.18.29.29,0,0,1,0,.18h.07l.14-.43-.07-.28h-.07l-.15.14Zm.15.29a.06.06,0,0,0-.07-.07v.14h.07Zm.57,28.41-.14-.07a.44.44,0,0,0-.43.28l.14.15a.27.27,0,0,0,.21-.08,1.21,1.21,0,0,1,.22-.14Zm.5-23.56a2.22,2.22,0,0,0-.11-.57q-.1-.36-.21-.78a2.86,2.86,0,0,0-.29-.75l-.25-.47h-.07v.14l-.07.08v.14a3.58,3.58,0,0,1,.36,1.18,1.77,1.77,0,0,0,.57,1.1Zm1.21-13.06a.19.19,0,0,0-.07.14s0,.07-.07.07v.22H212l.43-.5-.14-.15Zm2.36,21v-.15l-.15-.21c0-.1,0-.14-.07-.14l-.14.07v.14l.21.36h.08Zm.14.71.07-.21-.07-.15h-.14v.07a1,1,0,0,1,.07.36Zm.14-6.28a1,1,0,0,0,.15.21,1.21,1.21,0,0,1,.14.22l-.29.35.43.29h.14l.57-.22h.29c0-.38-.06-.6-.18-.67a1.46,1.46,0,0,0-.68-.11A1.85,1.85,0,0,1,214.69,164.64Zm3.43,3.21c0-.24-.19-.39-.57-.46a4.41,4.41,0,0,0-.86-.11l-.14-.07-.5.28-.5-.21c-.1-.05-.26,0-.5.14l.5.36.36.07a1.23,1.23,0,0,0,.46-.11,1.05,1.05,0,0,0,.39-.25l1,.5A.47.47,0,0,0,218.12,167.85Zm-2.5.71h.07v-.07l.57-.14.07-.14-.64-.07-.07.07.07.28Zm.07.15a.62.62,0,0,0,.18.46,2.37,2.37,0,0,1,.32.39l-.07.22a.78.78,0,0,1,.29.5l-.08.28.58.57a.78.78,0,0,0,0,1,4.91,4.91,0,0,0,.71.93l-.29-.07v.36h.43a13.52,13.52,0,0,0,1.57,1.32c.57.4,1.12.82,1.64,1.25l.15-.08-.43-.42.5-.22-.29-.64.15-.29-.22-.28c0-.05.07-.14.22-.29l-.43-.35c-.1.09-.18,0-.25-.18s-.16-.3-.25-.25l-.64-.57-.22-.07-.21.07,1.07.85h-.43l-.93-.57a6.62,6.62,0,0,1,.14-1.07,1.44,1.44,0,0,1,.43.5.52.52,0,0,0,.5.29l.36-.15.28.22.22-.07-.43-.36c.14-.14.11-.37-.11-.68a4.64,4.64,0,0,0-.46-.6c.09,0,.13-.05.11-.15s-.06-.12-.11-.07l-.86-1.14-2.21-1.07-.07.07.07.14,1.14.64-.39.18c-.17.07-.23.14-.18.18l-.64-.36-.07.08-.15-.22-.07.07-.5-.5Zm.64,20.84.29-.21h-.29l-.28.21.07.07.14-.07Zm-.14-24,.07.07h.22Zm.5,8.56c.52.53,1.1,1.08,1.71,1.68a9.91,9.91,0,0,0,1.93,1.46l.22-.14-.15-.14-.14-.36c.1,0,.12,0,.07-.07s-.07-.05-.07,0l-.36-.14-.92-.93a6.12,6.12,0,0,0-1.07-.86l.21-.28c-.05,0-.07,0-.07-.08a.07.07,0,0,0-.07-.07v.07l-.22.15a1.92,1.92,0,0,1-.85-.5Zm0,6.28.07.08.22-.22-.07-.14-.15.07Zm0,1.22v.07l.07.14h.07a.5.5,0,0,0,.36-.5l-.14-.07Zm.64-8.28h-.21s0-.1-.11-.15a1.09,1.09,0,0,0-.25-.07l.57.5Zm-.42,4.78.28-.29-.07-.07-.36.22Zm.28,4.07-.21.21a.41.41,0,0,0-.15.29l.08.07.42-.43Zm-.14-16.63h-.14l.14.21h.07l.07-.07Zm3,13.63c-.1-.1-.1-.24,0-.43l.21-.43-3.21-3h-.14v.14l.21.5-.21.21a.34.34,0,0,0,.17.32,2,2,0,0,1,.33.25s0,.12.21.22a.71.71,0,0,0,.21.07.17.17,0,0,1,0,.18c0,.07,0,.1.11.1.23.29.48.58.75.86s.51.55.75.79h-.86s.06.13,0,.25-.06.17-.1.17l-.22-.07-.5-.71c0-.1.09-.16.25-.18s.25-.06.25-.11-.1-.25-.32-.46a2.19,2.19,0,0,0-.46-.39h-.07a.52.52,0,0,0,.14.32c.09.12.12.22.07.32l-.43.5a3.25,3.25,0,0,1,.61.89,2.52,2.52,0,0,0,.68.89l.25,0c.12,0,.18-.06.18-.11a.69.69,0,0,0-.15-.36,2.14,2.14,0,0,0-.28-.35l.14-.22.93.86.43-.29v-.14l-.29-.36Zm-2.72.64-.28-.35-.07.14v.14l.14.14h.07Zm-.07-2.78.07-.14-.28.07.14.14h.07Zm1,5.64-.64.5.29.21.35-.43Zm-.21-1.79-.14-.14-.22.14.22.15Zm-.14,1,.49-.5-.14-.14-.35.29-.08.14v.21Zm.07-15a.45.45,0,0,0,.35.14h.15v-.14l-.08-.14-.21-.07s-.05.07-.14.07H218Zm.07,7.43.07-.08-.07-.07Zm.14,0,.29.21q.28,0,.21.21l.36.22h.07v-.14l-.72-.5Zm.71,7.92.29-.36v-.21h-.14l-.65.5a.52.52,0,0,0,.36.14Zm.79-23.63-.21-.07a1.35,1.35,0,0,0-.72.07l.5.14.36-.07Zm-.93,9.57v.07l.43.64h.07v-.21a.88.88,0,0,1-.21-.29,1.08,1.08,0,0,0-.22-.28Zm.72,12.85V181l-.15-.08-.14.15c0,.09.07.14.21.14Zm.42,1.78a.27.27,0,0,1,.08-.21.34.34,0,0,0,.07-.22v-.07l-.29-.07-.14.14-.07.29.07.14Zm.22-5.71-.14-.07-.29-.36Zm0,1.64c0-.09,0-.14.07-.14l-.14.14Zm.21-2.21a.47.47,0,0,0,.25.43,1.14,1.14,0,0,0,.54.14l.07-.07c0-.05-.05-.09-.14-.11s-.12-.06-.08-.11l-.28-.14-.07-.14-.15.07v-.07a.17.17,0,0,0-.07-.14Zm.43,4.21v-.14q0-.36-.21-.36h-.08l-.14.29.07.21.15.07Zm.21-1.93c.05-.24.12-.34.22-.32s.14,0,.14-.1l-.21-.22c-.15,0-.17.08-.07.25s0,.27-.36.32l-.07.43v.07l.43.43.28-.57Zm.29-1.07-.43-.35-.07.14.14.28a.16.16,0,0,1,.11,0,.16.16,0,0,0,.11,0h.14Zm-.21,3.79.28-.65-.21-.14-.22.07.07.07-.14.57.14.08Zm.57-26.92h-.15l.58.22.21-.07-.07-.15v.07l-.36-.49-.36.28Zm1.21,1.36-.57-.57h-.07l-.07.07.57.64Zm-.21,25.48v-.07h-.08l-.21.25a.58.58,0,0,0-.14.32v.15l.14.14.43-.21Zm1-26.48v-.43l.07-.14h-.07l-.36-.36-.5-.21-.29.07.57.71-.07.07h-.21l-.07-.07h-.07l.07.43.43.57-.15.29.36.43s.09,0,.14-.18a1.41,1.41,0,0,0,.07-.32l-.42-.86.07-.14.35.14Zm.07,21.2a21.4,21.4,0,0,1-.11,2.22c-.07.66-.16,1.4-.25,2.21v.5s.07,0,.07.07,0,.07-.07.07a2.47,2.47,0,0,0,.5-1.36,12.56,12.56,0,0,0,.14-1.57v-1.1A1.63,1.63,0,0,0,223.69,176.2Zm-.29,4.21-.07.15A.21.21,0,0,1,223.4,180.41Zm.5-26.91a1.48,1.48,0,0,0-.28,0c-.15,0-.22.06-.22.1a1.25,1.25,0,0,0,.39.25,1.1,1.1,0,0,0,.47.11l.21-.21Zm2.43-.78c0-.05.11-.11.18-.18a.28.28,0,0,0,.1-.18v-.07l-.21-.14h-.5a2.39,2.39,0,0,0-.86.17,1.48,1.48,0,0,1-.85.11l-.57.21v.08Zm-2.64,1.71H224l.07.07h.15l-.07-.14h-.36Zm1.5-7-.07.07H225v.08l-.71,1.07s0,.07-.07.07-.07,0-.07.07a1.11,1.11,0,0,1-.22.29.42.42,0,0,0-.14.28l.07.07.07-.07a2.74,2.74,0,0,0,.29-.36c.14-.19.29-.39.46-.6l.43-.57a.78.78,0,0,0,.18-.4l-.07-.07Zm-1,9.43-.22-.22-.14.29.07.07v.07L224,157h.15Zm-.36,13,.5-.14-.14-.08H224l-.14.08Zm2.64-16.56-.07-.22H224l-.07.07.36.22a1.44,1.44,0,0,1,.57-.07l.36.35.5-.14.14.14V154l.29.07.14-.07Zm-1.85,3.21a.35.35,0,0,1,0-.14.42.42,0,0,0,0-.15q0-.21-.36-.21h-.07l.21.57Zm1.85-4.78a2.55,2.55,0,0,0-.46-.25,1.23,1.23,0,0,0-.47-.11c-.28,0-.45.1-.5.29l-.64.28h1.14c-.19-.05-.27-.13-.25-.25s.09-.13.18,0ZM225,154.93l-.28-.14-.22.35.15.36h.14Zm-.21-.64.07.14H225l.15-.29-.29-.14-.07.14Zm.5,1.78a1.22,1.22,0,0,0-.14-.64l-.15.5.15.21h.07Zm.64-.64.29-.79c-.1-.19-.22-.28-.36-.28l-.21,1.07.07.14h.14Zm.79-1.64a1.3,1.3,0,0,0-.15.35l.15.15.14-.22Zm.28-1.36a.53.53,0,0,0,0,.36,2.6,2.6,0,0,1,0,.35l.07.08.29-.65v-.21l-.07-.21h-.07Zm3.79,12.92a1.92,1.92,0,0,0-.58.36l.08.07.21-.14h.07l.22-.22Zm.35-.28c-.05,0,0,0,.07-.15a.21.21,0,0,0,.15-.07l-.07-.07a2.15,2.15,0,0,1-.5.57h.07Z" transform="translate(-4.35 -8.49)"/><path class="cls-2" d="M265.52,134.87h-.22a8.57,8.57,0,0,0-1.57-1.78,3.78,3.78,0,0,0-2.35-.58,18.24,18.24,0,0,0-2.61.18,19.73,19.73,0,0,0-2.53.54l.07.14c.71,0,1.58-.05,2.6-.14a14,14,0,0,1,3,0,4.8,4.8,0,0,1,2.43,1,3.08,3.08,0,0,1,1,2.57,1.73,1.73,0,0,1-.1.53q-.1.33-.18.54L263.66,139l-.14-.14.07-.79a4.4,4.4,0,0,0-1-1.21,6.89,6.89,0,0,0-1.54-1,8.71,8.71,0,0,0-1.78-.61,7.66,7.66,0,0,0-1.65-.22c-.28,0-.83.07-1.64.18l-2.75.43c-1,.17-2.09.37-3.21.61s-2.15.48-3.1.72a22.56,22.56,0,0,0-2.39.71c-.65.24-1,.45-1,.64a14.31,14.31,0,0,1-.36,3.12c-.24,1.07-.51,2.17-.82,3.29s-.6,2.24-.89,3.36a28.42,28.42,0,0,0-.64,3.18l-.07.07h-.08a12.53,12.53,0,0,1,.25-2.43c.17-.81.36-1.62.58-2.43s.4-1.61.57-2.4a11.59,11.59,0,0,0,.25-2.32c0-.14-.05-.22-.15-.22l-.14.22a2.51,2.51,0,0,0-.36.86c-.09.38-.2.77-.32,1.18a10.56,10.56,0,0,0-.28,1.21c-.07.41-.13.73-.18,1q-1,5.07-2.14,10a44.45,44.45,0,0,0-1.14,10.16,16.69,16.69,0,0,0,.17,2.57A4.13,4.13,0,0,0,239,171a.31.31,0,0,0,.15.25.45.45,0,0,0,.28.11l.29-.08v-.14a4.1,4.1,0,0,1-1.08-2.54c-.09-1-.14-2-.14-2.82,0-.38,0-1.12.1-2.22s.16-2.23.27-3.4.24-2.26.37-3.29a6.54,6.54,0,0,1,.41-1.89,4.77,4.77,0,0,1,.17-1.29q.18-.65.33-1.29l.14-.14.14.29a44.43,44.43,0,0,0-1.16,7c-.23,2.5-.34,4.88-.34,7.11a6.7,6.7,0,0,0,.68,3.19,5.48,5.48,0,0,1,.68,1.54l.71.85a4.09,4.09,0,0,0,2.54-1.07,15.31,15.31,0,0,0,2.6-2.78,36.12,36.12,0,0,0,2.5-3.85q1.22-2.15,2.21-4.22c.67-1.38,1.25-2.67,1.75-3.89s.87-2.2,1.11-3l.43-.5.57.5a11,11,0,0,1-.93,4.28q-.93,2.22-1.71,4.14c-.1,0-.16,0-.18.11a.17.17,0,0,0,0,.18c-.76,1.09-1.57,2.37-2.42,3.82a35.65,35.65,0,0,1-2.89,4.17,16.46,16.46,0,0,1-3.54,3.32,7.52,7.52,0,0,1-4.35,1.32h-.29c-.24-.09-.5-.17-.78-.25a5.24,5.24,0,0,1-.79-.25l-.07-.14a.13.13,0,0,1,.14-.14H237c0-.1-.06-.16-.17-.18l-.33,0a2.21,2.21,0,0,1-1.07-.72,8.91,8.91,0,0,1-.92-1.28,9.07,9.07,0,0,1-.72-1.47c-.19-.5-.33-.91-.43-1.25a52.73,52.73,0,0,1-1.5-8.49c-.23-2.71-.35-5.62-.35-8.71a45,45,0,0,1,1.35-11.06c-.81.09-1.6.21-2.39.35a12.65,12.65,0,0,1-2.39.22,18.54,18.54,0,0,1-3.1-.29,5.22,5.22,0,0,1-2.75-1.28q-.08-.08,0-.18a.3.3,0,0,1,.18-.11,8.36,8.36,0,0,0,4.86,1.43h.21l-.29-.22a14.54,14.54,0,0,1-2.35-.53,9.89,9.89,0,0,1-2.43-1.11,7,7,0,0,1-1.89-1.68,3.65,3.65,0,0,1-.75-2.32v-.35l.29-.72a1.62,1.62,0,0,1,.49-.64,1.36,1.36,0,0,1,.5.07,10.8,10.8,0,0,0,1,1,13.19,13.19,0,0,0,1.28,1.07,11.74,11.74,0,0,0,1.4.89,2.71,2.71,0,0,0,1.35.4l.29.14a10.26,10.26,0,0,1,2.32.43,8.1,8.1,0,0,0,2.39.36l2.5-.08c0-.14.13-.48.25-1s.25-1.12.39-1.71.29-1.15.43-1.65.26-.77.35-.82a7.22,7.22,0,0,1,.58-2c.38-1,.85-2.13,1.42-3.46s1.22-2.74,1.93-4.21,1.42-2.87,2.11-4.18,1.33-2.44,1.92-3.39a6.12,6.12,0,0,1,1.47-1.79l.07.15v.07c-1.43,2.14-2.76,4.37-4,6.67a56.53,56.53,0,0,0-3.21,7.11,5.22,5.22,0,0,0-.89,1.92,17.6,17.6,0,0,1-.75,2.15s0,.17-.07.39a5.57,5.57,0,0,1-.22.71c-.09.26-.19.51-.28.75a1.63,1.63,0,0,0-.15.5,11.8,11.8,0,0,0-.53,1.86,17.29,17.29,0,0,1-.47,1.85h.36c.05,0,.07,0,.07-.14l.29-.29.07.08v.42h.07v-.57l-.21-.07a4.07,4.07,0,0,1,.14-.82,11.43,11.43,0,0,1,.36-1.25c.14-.43.27-.85.39-1.28a9.3,9.3,0,0,1,.32-1l.14-.15.36.15a.9.9,0,0,0,.29-.64v-.08l-.15-.07-.07.15s-.09,0-.14-.08a.26.26,0,0,0-.14-.07q.86-2.28,2.14-5.42a49.72,49.72,0,0,1,3-6.14A28.9,28.9,0,0,1,245,115a10,10,0,0,1,4.71-3,1.74,1.74,0,0,1,2,.5,5.83,5.83,0,0,1,1.14,2.14,13.73,13.73,0,0,1,.53,2.67q.15,1.4.15,2a18.76,18.76,0,0,1-.54,4.39,16.83,16.83,0,0,1-1.61,4.21,12.57,12.57,0,0,1-2.71,3.43,9.89,9.89,0,0,1-3.85,2.1,6.91,6.91,0,0,1-.5,1.47,3.34,3.34,0,0,0-.36,1.46,33.79,33.79,0,0,0,4.21-1.18c1.43-.5,2.86-1,4.28-1.46s2.86-.88,4.29-1.22A18.86,18.86,0,0,1,261,132a6.26,6.26,0,0,1,2.75.6,3.69,3.69,0,0,1,1.82,2.11Zm-41.19,3.07-.07-.14H224l-.21.14.14.07h.29Zm1.71.64-.18-.18a.33.33,0,0,0-.25-.1,1.2,1.2,0,0,0-.46.1,1.06,1.06,0,0,1-.46.11c0-.09,0-.12-.11-.07s-.11.1-.11.14.09.15.25.15.25,0,.25.14l-.07.07.14-.07,1.22.28.07-.14-.36-.36Zm-1.14.36-.43.07a1.36,1.36,0,0,0,.36.25,1,1,0,0,0,.43.11h.14v-.07Zm2.64.29c.14,0,.21,0,.21-.08l-.07-.14h-.35s0-.08,0-.11-.11-.06-.11-.1,0-.16.11-.18.08-.08,0-.18a3.38,3.38,0,0,0-.47-.18,1.7,1.7,0,0,0-.46-.11l-.14.08.21.28a.34.34,0,0,0-.25-.07c-.12,0-.18.05-.18.14l.14.07.29-.14.5.29h.14l.29.35Zm2.07-.36-.14-.07-.29.14.07.14.29-.07Zm1.79.14-.22-.07h-.28a1.15,1.15,0,0,0-.43.14l.07.15h.21l.57-.08Zm.66,13.92a15.92,15.92,0,0,1,.31-3.14,21.32,21.32,0,0,0,.38-3.21l-.07.35a17.57,17.57,0,0,1,.42-3.17c.25-1.07.48-2.11.72-3.11a1.33,1.33,0,0,0-.32,0l-.32,0c-.33,1.76-.64,3.47-.93,5.11a30.74,30.74,0,0,0-.43,5.17l.08,1.93.08.07Zm.91-3.78V148h-.07l-.22,1,.07.5.07.08Zm.35,8.85c.15-.1.22-.31.22-.64v-.65l-.07-.07v-1h-.08c-.09,0-.16.29-.21.86s-.07.93-.07,1.07Zm-.14,1.36a.8.8,0,0,0,.29-.5l-.22-.36a.36.36,0,0,1,0,.18s0,.08,0,.18Zm1.64-7.36H235l.08-.14a1.53,1.53,0,0,0-.32-.68,5.65,5.65,0,0,0-.47-.61,1.65,1.65,0,0,0-.18.25c-.07.12-.13.09-.18-.1l.36-.79-.07-.28-.29-.36c-.09,0-.16.15-.21.46a4.73,4.73,0,0,0-.07.61v.29s0,.1.14.17a.4.4,0,0,0,.22.11l.21.64c.19-.14.29-.17.29-.1a1,1,0,0,0,.07.32Zm-.78-4.21q.28.57.54,1.14c.17.38.32.76.46,1.15l-.14-.22.14.43-.08.21-.25-.5-.13.15.07.35.12.15.34-.15.14.07.29-.21a6.68,6.68,0,0,1-.25-.71,6.31,6.31,0,0,1-.18-.72.13.13,0,0,1,.14-.14.25.25,0,0,1,.21.07s.1,0,.15-.07l-.29-.5a.41.41,0,0,0-.07.29c0,.14-.05.19-.14.14s-.24-.48-.43-.86a2.24,2.24,0,0,1-.29-.93l-.14-.21c-.09,0-.15.14-.18.43s0,.45,0,.5Zm.21-2-.14.29.21.28h.22l.07-.07a.31.31,0,0,0-.07-.21.83.83,0,0,1-.15-.22Zm.07,11.28-.14-.14-.07.07v.21l.21-.07Zm.22-12.56a2.75,2.75,0,0,0,1,2,14,14,0,0,0,1.71,1.46l.21-.21a2.14,2.14,0,0,1,.15-.64c-.43-.81-.87-1.6-1.32-2.36s-.94-1.5-1.47-2.21h-.14v.28c0,.29-.06.57-.1.86A8.25,8.25,0,0,0,234.54,144.51Zm.35,12.85a.16.16,0,0,0,0-.11.12.12,0,0,1,0-.11h-.14l-.07.15.14.21h.14Zm-.21-3.86.36.5h.21l.43.22.21-.15v-.14a2.32,2.32,0,0,1-.93-.79l-.28.29Zm.36,2.36-.15-.36-.21.21v.22l.14.28h.07l.07-.07.08-.21Zm-.22-18.78.07-.07v-.14l-.07.14Zm3.36,8.64.07-.14-2.93-6.21-.28.57a3.69,3.69,0,0,1-.11.86,3.54,3.54,0,0,0-.11.85l1.5,1.93a7.08,7.08,0,0,1,1.14,2.07l.43.43.29-.29Zm-2.72,12.21c0-.24-.06-.34-.17-.29a.28.28,0,0,1-.33-.07h-.07l.15.07.14.5h.21Zm-.07,1.35-.14-.21h-.14l-.07.36a.19.19,0,0,0,.21.21Zm.22-7.21-.07-.21-.15-.14h-.07l-.14.28.28.22Zm-.22,4.72.15-.29-.08-.21-.21-.08v.36a.14.14,0,0,0,0,.11.16.16,0,0,1,0,.11Zm.79-1.58-.36-.42h-.21l-.15.07s.15.17.29.35.24.29.29.29l.14-.07Zm.21-6.71V148l-.64-.64-.14.07v.15a1.09,1.09,0,0,0,.21.6l.36.54Zm4.79-9.63c-.1-1-.22-1.9-.36-2.86s-.29-1.9-.43-2.85l-.21-.36.07-.57-.07-.21-.36.28v.07l-.43-.07-.21-.5-.15-.07-.14.07-.07.5a2.82,2.82,0,0,1,.11.54,5.36,5.36,0,0,0,.1.6l-.14.07-.53-.57.15-.43-.45-.35a.16.16,0,0,1-.19,0,.16.16,0,0,1-.11-.17l.15-.5.15-.22-.07-.07-.45.21c-.2.48-.42,1.11-.68,1.9a6.08,6.08,0,0,0-.4,1.89.45.45,0,0,0,.15.35,5.8,5.8,0,0,1-.29,1.18c-.14.41-.26.8-.36,1.18-.09,0-.16.11-.21.32a2.28,2.28,0,0,0-.07.47l.14.5.14.07c.43.85.84,1.72,1.22,2.6s.81,1.75,1.27,2.61c.05,0,.09,0,.11.1s.07.18.12.18v-.14l-.24-1.21c-.26-1.43-.58-2.93-1-4.5a18.65,18.65,0,0,1-.58-4.5,1.89,1.89,0,0,1,.18-.71,4.15,4.15,0,0,1,.32-.64.32.32,0,0,0,.22.17,1.62,1.62,0,0,1,.28.11c0,.19,0,.26-.14.22l-.36.28v1.64l.29.29a9,9,0,0,0,0,2.43,19,19,0,0,0,.52,2.42c.22.81.45,1.62.67,2.43a8.56,8.56,0,0,1,.34,2.35l.14.43c.1-.38.18-.73.25-1.07a5.17,5.17,0,0,0,.11-1.07,10,10,0,0,0-.39-2.78,19.77,19.77,0,0,1-.61-2.79l.43-.78.78,5.14c.1.09.15.12.15.07s0-.07.07-.07l.14-.57-.14-.79.21-.57-.07-.64c-.1-.05-.14-.19-.14-.43V139l-.15-.07v-.79l.72-.07.07.07.07,1.29H241ZM236,158.5l-.22-.22-.14.15.21.21Zm0-6.28h.14l.14-.07-.28-.29-.15.29Zm.35-4.29h.15v-.07a.07.07,0,0,0-.08-.07Zm.5.86a.63.63,0,0,0-.35.57l.21.43h.07c.1,0,.14-.1.14-.29a1.4,1.4,0,0,0-.17-.28.25.25,0,0,1,0-.29l.5-.21v-.22c0-.19-.07-.28-.21-.28l-.22.21Zm.29,5.28c.09.05.15,0,.18-.25s0-.34,0-.39l.5-.36-.21-.14a2,2,0,0,0-.72.14.51.51,0,0,0-.35.5Zm-.5,19.63c0,.05,0,.08.07.08v-.08Zm1-21.7.43-.35v-.29l-.22-.14-.78.07-.15.14.58.57Zm-.07,3.79h-.07c-.1,0-.15,0-.15.07s0,0-.07-.07v-.36l-.14-.14-.22.14v.71l.22.07.43-.28Zm-.36,3.14a.34.34,0,0,0-.07-.22l-.14.22.14.14Zm.71-8.07s.11,0,.18,0a.31.31,0,0,0,.11-.17l.21-1.07-.35-.5c0-.05,0-.1,0-.15s-.11,0-.11.07l-.35-.21-.22.57A3.41,3.41,0,0,0,238,150.86Zm-.07,1s-.08.07-.1.07a.2.2,0,0,0-.11.07.2.2,0,0,1,.11-.07S237.84,151.91,237.89,151.86Zm.43-3,.21-.07a1.39,1.39,0,0,0-.25-.54,3,3,0,0,0-.39-.53h-.07l-.07.5v.07l.43.5v.07Zm.64-1.28a2,2,0,0,0-.2-.79c-.14-.28-.26-.54-.37-.78l-.21.5Zm.93-16.28v.29l.29-.15v-.14l-.07-.14Zm1.57,7.85s.12-.13.22-.39.2-.57.32-.93.22-.72.32-1.1a4.54,4.54,0,0,1,.28-.86v-.21l-.35-.43.21-.57.21-.15v-.21h-.35l-.29.36a1.93,1.93,0,0,1,0,.25c0,.11-.09.17-.18.17s-.31-.11-.22-.35l-.28-.79.21-.5a.73.73,0,0,1-.5-.71v-.07h.07l.29-.36.07-1.21c.14.09.26,0,.36-.15a2.45,2.45,0,0,0,.14-.71V130c-.24,0-.34.1-.32.32s0,.32-.11.32-.21-.07-.21-.22l-.29.22-.64.07c0,.1,0,.31.14.64s.17.53.07.57a13,13,0,0,0,.29,2.75,25.91,25.91,0,0,1,.43,2.75q.13.15.18,0a.46.46,0,0,1,.1-.21c.15-.15.22-.17.22-.08a3.45,3.45,0,0,1-.14,1l-.29.89Zm-.86,3.72.15-.36.07-.07-.14-.22-.22.36v.21l.07.15Zm1.65-1.43c.09,0,.19-.14.28-.43a6.94,6.94,0,0,0,.25-1c.07-.38.14-.75.22-1.11a4.21,4.21,0,0,1,.17-.67,2.75,2.75,0,0,0-.71,1.35,6.22,6.22,0,0,0-.29,1.57l-.07.15Zm.71-9.5-.07.08v.14l.07.21h.14l.22-.64-.15-.14-.14.07Zm8.35-16.84a6,6,0,0,0-1.71,2.67c-.57,1.41-1.11,2.94-1.61,4.61s-1,3.29-1.35,4.89-.75,2.79-1,3.6l.07.15a2,2,0,0,0,.93-.33,9.29,9.29,0,0,0,1.14-.75,7.68,7.68,0,0,0,1-.92,2.93,2.93,0,0,0,.6-.86,5.24,5.24,0,0,0,.93-1.75c.34-.88.66-1.84,1-2.89s.56-2,.75-3a11.83,11.83,0,0,0,.28-2.07,6.83,6.83,0,0,0-.07-.78c-.05-.38-.12-.76-.21-1.15s-.19-.71-.29-1-.17-.42-.21-.42ZM250,112.6h.43a.49.49,0,0,0,.14.11.61.61,0,0,1,.14.1l.14-.07v-.07h-.28l-.43-.21Zm1,49.82H251l-.22.43.14.07v-.21Zm.85-.57c0-.19-.07-.28-.21-.28l-.57.57-.07.28.21.29.5-.86Zm.5-2,.36-.64-.07-.14-.29.57Zm.65-1.71a.62.62,0,0,0-.18.36,1.53,1.53,0,0,1-.11.36l.07.07.29-.57v-.22Zm.64-1.5a1.18,1.18,0,0,0-.18.32,1.3,1.3,0,0,0-.11.33l.07.07h.08l.35-1-.07-.15Zm1.64-23.13-.14-.07-.29.15h-.21l.14.14.5-.14ZM263,135.3l.21.21.15-.07-.15-.28Z" transform="translate(-4.35 -8.49)"/><path class="cls-2" d="M284.43,152.72c-.8,1.14-1.63,2.34-2.46,3.6s-1.58,2.51-2.25,3.75a.13.13,0,0,0-.1,0,.14.14,0,0,1-.11,0c-.91,1.33-2,2.82-3.18,4.46a38.1,38.1,0,0,1-4,4.61,23.71,23.71,0,0,1-4.67,3.6,10.26,10.26,0,0,1-5.28,1.46H261c-.38,0-.73,0-1,0a4.3,4.3,0,0,1-1-.22,8,8,0,0,1-1.25-.53l-.72-.39a2.89,2.89,0,0,0-.64-.32,4.14,4.14,0,0,1-1.14-.79c.09-.05.08-.09,0-.14a.73.73,0,0,0-.25-.07,11.69,11.69,0,0,1-1.75-1.5,7.89,7.89,0,0,1-1.32-1.86l.15-.07,1.57,1.57.07-.14a2.5,2.5,0,0,0-.4-1c-.26-.48-.54-1.05-.85-1.72a21.39,21.39,0,0,1-.86-2.15,7,7,0,0,1-.39-2.29,25.86,25.86,0,0,1,.89-6.73,18.17,18.17,0,0,1,2.71-5.83,14.06,14.06,0,0,1,4.64-4.12,13.36,13.36,0,0,1,6.61-1.58,15.06,15.06,0,0,0-2-.14,8.72,8.72,0,0,0-4.5,1.32,18.22,18.22,0,0,0-4,3.29,19,19,0,0,0-3,4.31,12.51,12.51,0,0,0-1.42,4.5v.82c0,.41-.07.66-.22.75l-.21-.28a12.75,12.75,0,0,1,.75-4.32,16.64,16.64,0,0,1,2-3.93,17.94,17.94,0,0,1,3-3.28,18.79,18.79,0,0,1,3.64-2.46c.38-.19.9-.44,1.57-.75a4.11,4.11,0,0,1,1.57-.47c.91,0,1.63,0,2.18.07a6.1,6.1,0,0,1,3,1l1.93,1.25.71-.36.07.07a.48.48,0,0,1-.14.25,2.58,2.58,0,0,1-.21.25,1.11,1.11,0,0,0,.25.64,8.29,8.29,0,0,0,.57.75,5.83,5.83,0,0,0,.68.72l.57.53-.22.36a2.3,2.3,0,0,0,.32,1.18,2.19,2.19,0,0,1,.33,1.18,24.42,24.42,0,0,1-.47,4.31,22,22,0,0,1-1.5,4.89,12.56,12.56,0,0,1-2.71,4,5.53,5.53,0,0,1-4,1.64,6.76,6.76,0,0,1-3.25-.82,3.8,3.8,0,0,1-2-2.67l-.08-.08a2.66,2.66,0,0,0-.25.68,9.31,9.31,0,0,0-.17,1c-.05.33-.09.65-.11,1s0,.56,0,.75a7.11,7.11,0,0,0,1.36,4.14,13,13,0,0,0,2.11,1.14,6.24,6.24,0,0,0,2.32.36,6,6,0,0,0,3.24-1.32,33.19,33.19,0,0,0,4-3.32c1.39-1.33,2.76-2.81,4.15-4.43s2.61-3.17,3.71-4.67a47.79,47.79,0,0,0,2.67-4,7.92,7.92,0,0,0,1.11-2.49c-.05,0-.07,0-.07-.11s0-.11.07-.11Zm-32,12.77-.14-.28h-.07v.07c0,.1.07.21.21.36Zm5.29-5.56a.27.27,0,0,0,.14,0,.37.37,0,0,1,.14,0l.43-1.14-.14-.14h-.43l-.07-.07h-.07v.07h-.43l1.07-1.14.14-.07c.24.14.43,0,.57-.29s.24-.57.29-.71l-.14-.22a5,5,0,0,1-.65.22,3.28,3.28,0,0,0-.57.21l-.14-.28.21-.29v-.07a4.14,4.14,0,0,1-.46.36,1.15,1.15,0,0,1-.61.21l-.14-.14.36-.57v-.15a.5.5,0,0,0-.29.11.28.28,0,0,1-.29,0l-.14-.08.07-.21c.24-.19.47-.36.68-.5a1.21,1.21,0,0,0,.47-.71l-.08-.22-.57.64a2.46,2.46,0,0,0-.89.47,2.44,2.44,0,0,1-.89.46l-.14-.14,1.07-1.78v-.08a1.23,1.23,0,0,1-.47.4,2.55,2.55,0,0,0-.46.25,1.87,1.87,0,0,0-.43.42,3.92,3.92,0,0,0-.43.93v.07l.29.29a2.37,2.37,0,0,0-.57.43.88.88,0,0,0-.29.64l.07.22H254l1.65-1,.21.14v.07a3.82,3.82,0,0,0-1.25,1,7.94,7.94,0,0,1-1.18,1.11h-.07v.21c.05,0,.07,0,.07-.14a2.28,2.28,0,0,0,1-.57,5.16,5.16,0,0,1,1-.71l.22.21a2.73,2.73,0,0,1-1.15,1.07l-.14.22.07.07V159l-.14-.07-.36.28v.15a.13.13,0,0,0,.15-.15,5.06,5.06,0,0,0,1.46-1,13.72,13.72,0,0,1,1.32-1.18l.43.14-.07.22a16.36,16.36,0,0,1-1.72,1.6,21.4,21.4,0,0,0-1.71,1.54c-.1.09-.15.06-.18-.11s-.08-.22-.18-.18l-.5.36.36.36-.21.35c-.1.15,0,.24.14.29l.86-.57.14.07.07,1a.21.21,0,0,0,.14.07.21.21,0,0,1,.15.07l-.08.36h.15a2.1,2.1,0,0,1,.53-.4c.17-.07.25-.25.25-.53l-.14-.14H255a2.7,2.7,0,0,1,.68-1l.89-.89-.35-.07-.08-.14.72-.57a.12.12,0,0,1,.14.14.31.31,0,0,0,.07.21l.29-.07v.22L256,160.85l.15.36a10,10,0,0,0,.92-.75,1.4,1.4,0,0,0,.43-1.1l.22.21Zm-4.79-.36.07.14.43-.43v-.07h-.21Zm.22,6.64H253s0,.07.15.07Zm-.07-7.93.14.08.07-.15.14-.07v-.07h-.07Zm.28-1a.25.25,0,0,0-.07.21l.07.14.14-.14Zm.36,7h.07l.21-.14a13,13,0,0,1-.21-2.36l-.36.36.22,2.07Zm1.28,6.85-1-1-.21.08v.21l1.14.86H255Zm-.78-6.63a.15.15,0,0,0,0,.1.14.14,0,0,1,0,.11l.21-.14.08-.15-.29-.14-.07.14Zm0,5.13.14.22h.14Zm.57-6.21v-.14l.07-.14-.14-.14-.29.28.22.14Zm-.07,2.29h.14l.07-.07-.21-.29-.07.07Zm.64-2.29v-.28l-.43.28s-.08,0-.11,0a.67.67,0,0,0,0,.18l.07.21h.21Zm-.14,8.43.14-.14.29.14.14-.07-.14-.07-.29-.29h-.07l-.07.07Zm1.5-8.78h-.15l-.28.5v.21l-.36.07a.49.49,0,0,0-.21.43l.14.43a.14.14,0,0,0,.21-.07.3.3,0,0,0,0-.29l.36-.07.21-.14Zm-.57,2.64a.18.18,0,0,0,0-.11.16.16,0,0,1,0-.11l-.14.22a.52.52,0,0,0,.14.36l.08-.08ZM256,172c0,.1.05.14.15.14l-.08-.14Zm.22-9.28a6.54,6.54,0,0,0,.46-.57,1.52,1.52,0,0,0,.32-.57l-.07-.14h-.14l-.64.78v.14Zm-.07,9.42q0,.15.21.15Zm.07-19.27.07.14a.23.23,0,0,1,.14-.07l-.07-.14Zm.14,19.42c.1.09.14.16.14.21Zm.14.5a.29.29,0,0,1,.29-.15l-.22-.14Zm.29-20.42v.14a.4.4,0,0,0,.28-.28v-.07H257Zm.35,11.28c.24,0,.4-.17.47-.5a4.17,4.17,0,0,0,.11-.79v-.21l-.08-.07-.5.5-.14.85Zm1.36-11.57a1.59,1.59,0,0,0-.68.79,3,3,0,0,1-.6.93v.07h.14l1.28-1.57v-.22Zm-1.07,9.5c.05,0,.12-.11.21-.32a1.68,1.68,0,0,1,.22-.4v-.28h-.14l-.36.78v.15Zm1.21-7.21-.71.78a1.1,1.1,0,0,0,.21.18.47.47,0,0,1,.15.18v.36h.14l.57-.5-.14-.07-.57.21-.07-.14v-.07l.85-.79-.07-.07a.17.17,0,0,1-.14-.07Zm-.35-.29.28.22a1.71,1.71,0,0,1,0-.36,2.6,2.6,0,0,0,0-.36Zm.71,19.49-.07-.07-.25-.11-.25-.1-.14.14a.31.31,0,0,1,.32,0,1.85,1.85,0,0,1,.25.18ZM258.81,162v-.22h-.07c-.1.1-.15.17-.15.22a.5.5,0,0,1-.07.21l.07.07h.07Zm0-8.57-.07-.07-.08.07.08.14Zm.35-2.28h.08a.07.07,0,0,0-.08-.08Zm.08,1.92.07.15.35.14.36-.29v-.14l-.07-.07h-.21Zm0,1.22.07.07.21-.29h-.14l-.14.15Zm.21-2.29.07.15.57-.65c.1.19.19.29.29.29l.28-.29-.14-.14-.36-.07-.14,0a.27.27,0,0,1-.14,0Zm.36,3.64-.07-.07h-.15v.07Zm9.35-8.35a4.86,4.86,0,0,0-3.36,1.36,13.14,13.14,0,0,0-2.6,3.25,26.17,26.17,0,0,0-1.89,3.92c-.53,1.36-.93,2.49-1.22,3.39,0,.15,0,.28.22.39a2.36,2.36,0,0,0,.68.29l.78.21a2.13,2.13,0,0,0,.61.11,4.42,4.42,0,0,1-1.14.43,3.61,3.61,0,0,0,.92.14,5.16,5.16,0,0,0,2.18-.5,8.58,8.58,0,0,0,2-1.28,11,11,0,0,0,1.68-1.79,7.54,7.54,0,0,0,1.11-2s0-.09,0-.14A.26.26,0,0,0,269,155a12.49,12.49,0,0,0-2.07,2.32,6.56,6.56,0,0,1-2.36,2l-.07-.15,2.1-2.25a25.22,25.22,0,0,0,1.9-2.28,11.76,11.76,0,0,0,1.39-2.53,8.74,8.74,0,0,0,.53-3.15,2.52,2.52,0,0,0-.28-1.14A1,1,0,0,0,269.16,147.29Zm-9,12.78a1.11,1.11,0,0,1,.11.11.61.61,0,0,0,.18.1l.36.22.07.07.14-.14c-.14-.1-.27-.19-.39-.29a.64.64,0,0,0-.39-.14h-.15Zm1.5,2.85a.13.13,0,0,0,.15.15h.07a.2.2,0,0,1-.07-.11s0-.06-.08-.11Zm1.79.36a4.39,4.39,0,0,0,1.25-.18q.6-.18,1.17-.39H265a8.07,8.07,0,0,0-1.11.07,8.07,8.07,0,0,1-1.11.07l.08.15Zm2.42.86a1.85,1.85,0,0,0,1.32-.5,4.72,4.72,0,0,0,.9-1.14v-.15l-1.36,1.07-.14-.07.21-.35-.07-.08a10.76,10.76,0,0,0-1.5.43,4.38,4.38,0,0,1-1.5.29l-.07.21.22.15a4.09,4.09,0,0,0,.85-.18,1.57,1.57,0,0,1,.79-.11.37.37,0,0,1,.18.25C265.72,164.08,265.78,164.14,265.87,164.14Zm-2.07-2.86.15-.07v-.07h-.15l-.07.07Zm1.93.57.07-.14-.14-.07-1.28.28-.08.22.22.14Zm-.21.43-.15.07.15.07.07-.07Zm1.14-.43a1.23,1.23,0,0,1-.64.22l-.07.14.07.07a.83.83,0,0,0,.78-.36Zm.29-.71a1.23,1.23,0,0,0-.47.11,1.05,1.05,0,0,0-.39.25v.07l.14.07a.92.92,0,0,0,.54-.18,1.52,1.52,0,0,1,.53-.25Zm.49-2.28a1.87,1.87,0,0,0-.71.64H267a.57.57,0,0,0,.42-.57ZM266.8,163a.22.22,0,0,0,.15-.08h-.15Zm.64-1.5-.42.28.14.14.28-.21c.1.1.15,0,.15-.14Zm3.22-11.85a8.1,8.1,0,0,1-.5,2.64,18,18,0,0,1-1.07,2.5.15.15,0,0,0,0,.1.14.14,0,0,1,0,.11,3.77,3.77,0,0,0,.6-.89,11.53,11.53,0,0,0,.61-1.36,14,14,0,0,0,.47-1.43,4.77,4.77,0,0,0,.17-1,2.15,2.15,0,0,0-.14-.71l-.14-.15v.07Zm-1.5-2.72h.14v-.07h-.14Zm.5,13.28-.07-.07-.22.21.07.08Z" transform="translate(-4.35 -8.49)"/></svg>